<svg xmlns="http://www.w3.org/2000/svg" width="1200" height="1200" viewBox="0 0 1200 1200">
  <defs>
    <linearGradient id="square-bg" x1="100" y1="30" x2="1120" y2="1180" gradientUnits="userSpaceOnUse">
      <stop stop-color="#004A46" />
      <stop offset="0.52" stop-color="#012E2C" />
      <stop offset="1" stop-color="#011F1E" />
    </linearGradient>
    <linearGradient id="square-accent" x1="350" y1="300" x2="860" y2="860" gradientUnits="userSpaceOnUse">
      <stop stop-color="#CBFFFC" />
      <stop offset="0.52" stop-color="#62E3DC" />
      <stop offset="1" stop-color="#B7A7FF" />
    </linearGradient>
    <pattern id="square-grid" width="64" height="64" patternUnits="userSpaceOnUse">
      <path d="M64 0H0V64" fill="none" stroke="#CBFFFC" stroke-opacity="0.05" />
    </pattern>
  </defs>
  <rect width="1200" height="1200" fill="url(#square-bg)" />
  <rect width="1200" height="1200" fill="url(#square-grid)" />
  <path d="M80 80H1120M80 1120H1120" stroke="#CBFFFC" stroke-opacity="0.14" />

  <text x="80" y="148" fill="#A9C5C3" font-family="Inter, Arial, sans-serif" font-size="28" font-weight="500" letter-spacing="7">СТЕПАН ДРОГИН</text>
  <text x="80" y="278" fill="#F3FFFE" font-family="Inter, Arial, sans-serif" font-size="94" font-weight="500" letter-spacing="-5">Product Engineer</text>
  <text x="80" y="354" fill="#CBFFFC" font-family="Inter, Arial, sans-serif" font-size="34">От идеи и UX до production</text>

  <circle cx="600" cy="704" r="250" fill="#012624" fill-opacity="0.7" stroke="url(#square-accent)" stroke-width="18" />
  <circle cx="600" cy="704" r="136" fill="#012624" stroke="#CBFFFC" stroke-opacity="0.36" stroke-width="9" />
  <path d="M600 592 712 704 600 816 488 704Z" fill="url(#square-accent)" />
  <circle cx="600" cy="454" r="20" fill="#CBFFFC" />
  <circle cx="850" cy="704" r="20" fill="#AFA1FF" />
  <circle cx="600" cy="954" r="20" fill="#62E3DC" />
  <circle cx="350" cy="704" r="20" fill="#CBFFFC" />

  <text x="80" y="1054" fill="#A9C5C3" font-family="Inter, Arial, sans-serif" font-size="25">Product  ·  UX  ·  Fullstack  ·  AI  ·  Delivery</text>
  <text x="80" y="1098" fill="#CBFFFC" font-family="Inter, Arial, sans-serif" font-size="25" font-weight="500">@stepan_dr</text>
</svg>
