<svg width="58" height="58" fill="none" xmlns="http://www.w3.org/2000/svg"><g clip-path="url(#a)"><path d="M4.86 15.063 29 1.127l24.139 13.936v27.874l-24.14 13.936L4.862 42.937V15.064z" stroke="#fff" stroke-width="2.006"/><path d="M26.484 38.202h-4.769l-1.38-3.488H13.46l-1.305 3.488H7.486l7.453-17.768h4.166l7.379 17.768zm-7.328-6.926-2.209-6.099-2.259 6.099h4.468zm22.273-5.371c0 1.305-.343 2.392-1.03 3.262A5.324 5.324 0 0 1 37.866 31c-1.004.334-2.166.502-3.488.502h-2.133v6.7h-4.292V20.434h6.525c2.108 0 3.79.435 5.045 1.305 1.271.853 1.907 2.242 1.907 4.166zm-4.292.025c0-1.355-1.004-2.033-3.011-2.033h-1.882v4.191h1.807c2.057 0 3.086-.719 3.086-2.158zm11.184 12.272h-4.316V20.434h4.316v17.768z" fill="#fff"/></g><defs><clipPath id="a"><path fill="#fff" d="M0 0h58v58H0z"/></clipPath></defs></svg>