<svg width="64" height="64" fill="none" xmlns="http://www.w3.org/2000/svg"><path d="M32 64c17.673 0 32-14.327 32-32C64 14.327 49.673 0 32 0 14.327 0 0 14.327 0 32c0 17.673 14.327 32 32 32z" fill="#72CA1A"/><path d="M32.3 4.2h17.5c1.3 0 2.3 1 2.3 2.3v10.7l4.6 4.1H32.3c-1.3 0-2.3-1-2.3-2.3V6.5c0-1.3 1.1-2.3 2.3-2.3z" fill="#434752"/><path d="M56.7 22.3s-.1 0 0 0H32.3c-1.8 0-3.3-1.5-3.3-3.3V6.5c0-1.8 1.5-3.3 3.3-3.3h17.5c1.8 0 3.3 1.5 3.3 3.3v10.2l4.1 3.7c.3.2.5.5.5.8 0 .6-.5 1.1-1 1.1zM32.3 5.2c-.7 0-1.3.6-1.3 1.3V19c0 .7.6 1.3 1.3 1.3H54l-2.6-2.4c-.2-.2-.3-.5-.3-.7V6.5c0-.7-.6-1.3-1.3-1.3H32.3z" fill="#193651"/><path d="M48.4 7.8H33.6v9.9h14.8V7.8z" fill="#fff"/><path d="M38.3 14H20.8c-1.3 0-2.3 1-2.3 2.3V27l-4.6 4.1h24.3c1.3 0 2.3-1 2.3-2.3V16.3c0-1.3-1-2.3-2.2-2.3z" fill="#4AA200"/><path d="M38.3 32.1H13.9c-.4 0-.8-.3-.9-.6-.1-.4 0-.8.3-1.1l4.2-3.8V16.3c0-1.8 1.5-3.3 3.3-3.3h17.5c1.8 0 3.3 1.5 3.3 3.3v12.5c-.1 1.8-1.5 3.3-3.3 3.3zm-21.8-2h21.7c.7 0 1.3-.6 1.3-1.3V16.3c0-.7-.6-1.3-1.3-1.3H20.8c-.7 0-1.3.6-1.3 1.3V27c0 .3-.1.6-.3.7l-2.7 2.4z" fill="#193651"/><path d="M36.9 17.6H22.1v9.9h14.8v-9.9z" fill="#fff"/><path d="M30.9 26.9h20.5c1.5 0 2.7 1.2 2.7 2.7v12.6l5.4 4.8H30.9c-1.5 0-2.7-1.2-2.7-2.7V29.5c.1-1.4 1.3-2.6 2.7-2.6z" fill="#575B66"/><path d="M59.6 48H30.9c-2 0-3.7-1.7-3.7-3.7V29.5c0-2 1.7-3.7 3.7-3.7h20.5c2 0 3.7 1.7 3.7 3.7v12.1L60 46c.3.2.5.5.5.8.1.7-.4 1.2-.9 1.2zM30.9 27.9c-.9 0-1.7.8-1.7 1.7v14.7c0 .9.8 1.7 1.7 1.7h26l-3.4-3.1c-.2-.2-.3-.5-.3-.7V29.5c0-.9-.8-1.7-1.7-1.7H30.9v.1z" fill="#193651"/><path d="M50.5 30.4H31.8v12.9h18.7V30.4z" fill="#fff"/><path d="M47.7 33.3h-.2a.9.9 0 0 0 0 1.8h.2a.9.9 0 0 0 0-1.8zM43.4 33.3h-.2a.9.9 0 0 0 0 1.8h.2a.9.9 0 0 0 0-1.8zM39.2 33.3H39a.9.9 0 0 0 0 1.8h.2a.9.9 0 0 0 0-1.8zM34.9 33.3h-.2a.9.9 0 0 0 0 1.8h.2a.9.9 0 0 0 0-1.8z" fill="#193651"/><path d="M32.8 39.7H12.3c-1.5 0-2.7 1.2-2.7 2.7V55l-5.4 4.8h28.6c1.5 0 2.7-1.2 2.7-2.7V42.4c0-1.5-1.2-2.7-2.7-2.7z" fill="#72CA1A"/><path d="M32.8 60.8H4.2c-.4 0-.8-.3-.9-.6-.1-.4 0-.8.3-1.1l5.1-4.5V42.4c0-2 1.7-3.7 3.7-3.7h20.5c2 0 3.7 1.7 3.7 3.7v14.7c-.1 2.1-1.8 3.7-3.8 3.7zm-26-2h26c.9 0 1.7-.8 1.7-1.7V42.4c0-.9-.8-1.7-1.7-1.7H12.3c-.9 0-1.7.8-1.7 1.7V55c0 .3-.1.6-.3.7l-3.5 3.1z" fill="#193651"/><path d="M31.9 43.3H13.2v12.9h18.7V43.3z" fill="#fff"/><path d="M16.2 51.6H16a.9.9 0 0 0 0 1.8h.2a.9.9 0 0 0 0-1.8zM16.2 45.6H16a.9.9 0 0 0 0 1.8h.2a.9.9 0 0 0 0-1.8zM20.5 51.6h-.2a.9.9 0 0 0 0 1.8h.2a.9.9 0 0 0 0-1.8zM20.5 45.6h-.2a.9.9 0 0 0 0 1.8h.2a.9.9 0 0 0 0-1.8zM24.7 51.6h-.2a.9.9 0 0 0 0 1.8h.2a.9.9 0 0 0 0-1.8zM24.7 45.6h-.2a.9.9 0 0 0 0 1.8h.2a.9.9 0 0 0 0-1.8zM29 51.6h-.2a.9.9 0 0 0 0 1.8h.2a.9.9 0 0 0 0-1.8zM29 45.6h-.2a.9.9 0 0 0 0 1.8h.2a.9.9 0 0 0 0-1.8zM34.3 20h-.2a.9.9 0 0 0 0 1.8h.2a.9.9 0 1 0 0-1.8zM29.6 20h-.2a.9.9 0 0 0 0 1.8h.2a.9.9 0 0 0 0-1.8zM25 20h-.2a.9.9 0 0 0 0 1.8h.2a.9.9 0 0 0 0-1.8zM45.8 9.6h-.2a.9.9 0 0 0 0 1.8h.2a.9.9 0 0 0 0-1.8zM41.1 9.6h-.2a.9.9 0 0 0 0 1.8h.2a.9.9 0 0 0 0-1.8zM36.5 9.6h-.2a.9.9 0 0 0 0 1.8h.2a.9.9 0 0 0 0-1.8z" fill="#193651"/></svg>