<svg width="84" height="83" fill="none" xmlns="http://www.w3.org/2000/svg"><g clip-path="url(#a)"><path d="M13.804 43.575 43.28 8.971l30.76 30.76-34.605 29.477-16.66-8.971-8.972-16.662z" fill="#1172B8"/><path d="M68.915 39.73 56.098 26.915l-31.4 31.4 13.457 7.05 30.76-25.633z" fill="#3AD"/><path d="M44.563 47.42 31.747 34.604l3.845-5.126 13.457 7.049-10.253-10.253L42 21.788l19.865 19.865-5.126 3.845-11.535-5.127 7.69 7.69-13.457 10.894-10.253-5.126-5.127-10.253 5.768-7.05 3.844 3.845-2.563 3.845 2.563 5.127 5.127 2.563 5.767-4.486z" fill="#fff"/></g><defs><clipPath id="a"><path fill="#fff" transform="rotate(45 21 50.698)" d="M0 0h58v58H0z"/></clipPath></defs></svg>