<svg width="40" height="58" fill="none" xmlns="http://www.w3.org/2000/svg"><g clip-path="url(#a)"><path d="M10.431 58C15.713 58 20 53.67 20 48.333v-9.666h-9.568c-5.281 0-9.568 4.33-9.568 9.666S5.15 58 10.431 58z" fill="#0ACF83"/><path d="M.863 29c0-5.336 4.287-9.667 9.568-9.667H20v19.334h-9.568C5.15 38.667.863 34.336.863 29z" fill="#A259FF"/><path d="M.863 9.667C.863 4.33 5.149 0 10.43 0h9.568v19.333h-9.568c-5.282 0-9.568-4.33-9.568-9.666z" fill="#F24E1E"/><path d="M20 0h9.568c5.281 0 9.568 4.33 9.568 9.667 0 5.336-4.287 9.666-9.568 9.666h-9.569V0z" fill="#FF7262"/><path d="M39.136 29c0 5.336-4.287 9.667-9.568 9.667-5.282 0-9.569-4.331-9.569-9.667 0-5.336 4.287-9.667 9.569-9.667 5.281 0 9.568 4.33 9.568 9.667z" fill="#1ABCFE"/></g><defs><clipPath id="a"><path fill="#fff" transform="translate(.859)" d="M0 0h38.28v58H0z"/></clipPath></defs></svg>