<svg width="40" height="58" viewBox="0 0 40 58" fill="none" xmlns="http://www.w3.org/2000/svg">
<g clip-path="url(#clip0)">
<path d="M10.4314 57.9998C15.7129 57.9998 19.9994 53.6692 19.9994 48.3332V38.6665H10.4314C5.14978 38.6665 0.863281 42.9972 0.863281 48.3332C0.863281 53.6692 5.14978 57.9998 10.4314 57.9998Z" fill="#0ACF83"/>
<path d="M0.863281 28.9999C0.863281 23.6639 5.14978 19.3333 10.4314 19.3333H19.9994V38.6666H10.4314C5.14978 38.6666 0.863281 34.3359 0.863281 28.9999Z" fill="#A259FF"/>
<path d="M0.862793 9.66667C0.862793 4.33067 5.1493 0 10.4309 0H19.999V19.3333H10.4309C5.1493 19.3333 0.862793 15.0027 0.862793 9.66667Z" fill="#F24E1E"/>
<path d="M19.9995 0H29.5676C34.8492 0 39.1357 4.33067 39.1357 9.66667C39.1357 15.0027 34.8492 19.3333 29.5676 19.3333H19.9995V0Z" fill="#FF7262"/>
<path d="M39.1357 28.9999C39.1357 34.3359 34.8492 38.6666 29.5676 38.6666C24.286 38.6666 19.9995 34.3359 19.9995 28.9999C19.9995 23.6639 24.286 19.3333 29.5676 19.3333C34.8492 19.3333 39.1357 23.6639 39.1357 28.9999Z" fill="#1ABCFE"/>
</g>
<defs>
<clipPath id="clip0">
<rect width="38.28" height="58" fill="white" transform="translate(0.858887)"/>
</clipPath>
</defs>
</svg>
