<svg width="58" height="58" fill="none" xmlns="http://www.w3.org/2000/svg"><ellipse cx="29" cy="29.537" rx="27.926" ry="28.463" fill="#fff"/><path d="M28.888.906C12.936.906 0 13.786 0 29.674c0 12.71 8.277 23.493 19.755 27.297 1.444.267 1.974-.624 1.974-1.384 0-.686-.027-2.952-.039-5.356-8.037 1.74-9.733-3.394-9.733-3.394-1.314-3.325-3.207-4.209-3.207-4.209-2.621-1.786.197-1.749.197-1.749 2.901.203 4.429 2.965 4.429 2.965 2.576 4.398 6.758 3.126 8.406 2.391.26-1.86 1.008-3.128 1.834-3.847-6.416-.727-13.161-3.194-13.161-14.217 0-3.14 1.128-5.707 2.976-7.721-.3-.725-1.288-3.65.28-7.614 0 0 2.426-.773 7.946 2.95 2.305-.638 4.776-.958 7.23-.968 2.456.01 4.929.33 7.238.967 5.514-3.722 7.936-2.949 7.936-2.949 1.572 3.963.583 6.889.283 7.614 1.852 2.014 2.973 4.58 2.973 7.721 0 11.05-6.758 13.482-13.19 14.194 1.036.893 1.959 2.644 1.959 5.328 0 3.849-.034 6.947-.034 7.894 0 .766.52 1.663 1.985 1.38C49.509 53.16 57.776 42.38 57.776 29.674 57.776 13.786 44.842.906 28.887.906z" fill="#161614"/><path d="M10.82 41.886c-.064.143-.29.186-.495.088-.21-.094-.328-.289-.26-.432.063-.147.289-.188.498-.09.21.094.33.29.257.434zm1.42 1.263c-.137.127-.407.068-.59-.133-.188-.2-.224-.469-.084-.598.142-.127.403-.068.593.133.189.203.225.47.081.598zm.975 1.615c-.177.122-.466.008-.645-.248-.177-.256-.177-.563.004-.685.18-.123.464-.013.645.24.177.261.177.568-.004.693zm1.649 1.871c-.159.174-.496.127-.743-.11-.252-.232-.323-.561-.164-.735.16-.174.5-.125.748.11.251.231.328.563.159.735zm2.13.632c-.07.225-.394.327-.721.232-.327-.099-.541-.363-.475-.59.068-.227.394-.334.724-.232.326.099.54.36.472.59zm2.425.267c.008.238-.27.434-.613.439-.345.007-.625-.185-.628-.418 0-.24.271-.434.616-.44.344-.007.625.184.625.42zm2.382-.09c.041.231-.197.469-.538.532-.336.06-.646-.082-.689-.311-.042-.238.202-.475.536-.537.342-.059.648.08.691.316z" fill="#161614"/></svg>