<svg width="38" height="38" fill="none" xmlns="http://www.w3.org/2000/svg"><circle cx="19" cy="19" r="19" fill="#4AA200"/><g clip-path="url(#a)"><path d="M8.517 19c0-2.894 1.024-5.364 3.071-7.412 2.048-2.047 4.518-3.07 7.412-3.07 2.893 0 5.364 1.023 7.412 3.07 2.047 2.048 3.07 4.518 3.07 7.412 0 2.893-1.023 5.364-3.07 7.412-2.048 2.047-4.518 3.07-7.412 3.07s-5.364-1.023-7.412-3.07c-2.047-2.048-3.07-4.518-3.07-7.412zm1.147 0c0 2.566.914 4.764 2.743 6.593 1.83 1.829 4.027 2.743 6.593 2.743s4.764-.914 6.593-2.743c1.829-1.83 2.743-4.027 2.743-6.593s-.914-4.764-2.743-6.593c-1.83-1.829-4.027-2.743-6.593-2.743s-4.764.914-6.593 2.743c-1.829 1.83-2.743 4.027-2.743 6.593zm2.948 2.252c-.055-.055-.055-.11 0-.164.11-.109.246-.15.41-.123.163.028.259.055.286.082.191.082.403.266.635.553.232.287.416.485.553.594.655.546 1.323.587 2.006.123.055-.191.143-.355.266-.492.123-.136.239-.232.348-.286.11-.055.3-.137.573-.246-.9-.082-1.63-.239-2.19-.471-.56-.232-1.004-.525-1.331-.88-.437-.492-.703-1.133-.799-1.925-.095-.792-.034-1.515.185-2.17.163-.41.396-.778.696-1.106-.219-.682-.178-1.46.123-2.334a4.251 4.251 0 0 1 2.375.901c1.365-.355 2.784-.368 4.258-.04.191-.137.485-.308.88-.513.396-.205.895-.32 1.495-.348.11.3.184.655.226 1.065.04.41.02.791-.062 1.146.628.655.955 1.53.983 2.621 0 .874-.15 1.597-.45 2.17-.3.574-.833 1.051-1.598 1.433-.518.246-1.2.396-2.047.45.382.192.662.39.84.595.177.204.293.525.348.962v1.29l.04 1.249c.082.136.178.252.287.348.11.095.205.164.287.205.082.04.109.102.082.184-.028.082-.137.123-.328.123-.464 0-.833-.164-1.105-.492a.938.938 0 0 1-.123-.491v-1.966c0-.218-.055-.375-.164-.47a.799.799 0 0 0-.328-.185v2.58c0 .464.055.764.164.9.11.137.177.274.205.41.027.028.007.048-.062.062-.068.013-.184-.007-.348-.062-.355-.082-.6-.266-.737-.552a2.116 2.116 0 0 1-.204-.922v-2.539h-.533v2.54c0 .327-.068.64-.205.941-.19.382-.546.587-1.064.614-.082-.027-.123-.054-.123-.082.027-.027.11-.163.246-.41a2.383 2.383 0 0 0 .164-.9v-2.58a.662.662 0 0 0-.308.184c-.095.096-.143.253-.143.471v1.966a.938.938 0 0 1-.123.491c-.246.328-.614.492-1.105.492-.192 0-.3-.041-.328-.123-.027-.055-.02-.102.02-.143.041-.041.103-.09.185-.144a1.23 1.23 0 0 0 .164-.123.745.745 0 0 0 .245-.327c.082-.11.103-.396.062-.86-.041-.464-.048-.764-.02-.901-.71.246-1.434.123-2.171-.368-.219-.219-.437-.533-.655-.942-.164-.3-.492-.655-.983-1.065z" fill="#393D48"/></g><defs><clipPath id="a"><path fill="#fff" transform="translate(8.517 8.517)" d="M0 0h20.965v20.965H0z"/></clipPath></defs></svg>