<svg width="22" height="22" viewBox="0 0 22 22" fill="none" xmlns="http://www.w3.org/2000/svg">
<g clip-path="url(#clip0)">
<path d="M0.51709 10.9998C0.51709 8.10616 1.5408 5.63562 3.58823 3.58821C5.63562 1.5408 8.10616 0.51709 10.9999 0.51709C13.8935 0.51709 16.3641 1.5408 18.4115 3.58821C20.4589 5.63562 21.4826 8.10616 21.4826 10.9998C21.4826 13.8935 20.4589 16.3641 18.4115 18.4115C16.3641 20.4589 13.8935 21.4826 10.9999 21.4826C8.10616 21.4826 5.63562 20.4589 3.58823 18.4115C1.5408 16.3641 0.51709 13.8935 0.51709 10.9998ZM1.66364 10.9998C1.66364 13.5659 2.57815 15.7635 4.40717 17.5925C6.23619 19.4215 8.43375 20.3361 10.9999 20.3361C13.5659 20.3361 15.7635 19.4215 17.5925 17.5925C19.4215 15.7635 20.3361 13.5659 20.3361 10.9998C20.3361 8.43375 19.4216 6.23619 17.5925 4.40717C15.7635 2.57815 13.5659 1.66364 10.9999 1.66364C8.43375 1.66364 6.23621 2.57815 4.40717 4.40717C2.57815 6.23619 1.66364 8.43375 1.66364 10.9998ZM4.61193 13.252C4.55734 13.1974 4.55734 13.1428 4.61193 13.0882C4.72111 12.979 4.85762 12.9381 5.0214 12.9654C5.18519 12.9927 5.28073 13.0199 5.30803 13.0472C5.49913 13.1291 5.7107 13.3134 5.94272 13.6001C6.17474 13.8867 6.35902 14.0846 6.49553 14.1938C7.1507 14.7398 7.8195 14.7807 8.50197 14.3166C8.55657 14.1256 8.6453 13.9618 8.76813 13.8252C8.89095 13.6888 9.007 13.5932 9.1162 13.5386C9.22541 13.484 9.41651 13.4021 9.68949 13.2929C8.78861 13.211 8.05838 13.054 7.49875 12.822C6.93913 12.59 6.49551 12.2965 6.16792 11.9416C5.73114 11.4502 5.46497 10.8087 5.36942 10.0171C5.27386 9.22539 5.33529 8.50197 5.5537 7.8468C5.71749 7.43732 5.94953 7.06881 6.2498 6.7412C6.03141 6.05873 6.07236 5.28071 6.37265 4.40715C7.24621 4.46175 8.03787 4.76204 8.74764 5.30801C10.1126 4.95313 11.5321 4.93948 13.0062 5.26706C13.1973 5.13057 13.4908 4.95996 13.8866 4.7552C14.2824 4.55046 14.7807 4.43443 15.3812 4.40713C15.4904 4.70742 15.5655 5.0623 15.6065 5.47178C15.6474 5.88127 15.6269 6.26345 15.545 6.61833C16.1729 7.27351 16.5005 8.14707 16.5278 9.23902C16.5278 10.1126 16.3777 10.836 16.0774 11.4093C15.7771 11.9826 15.2448 12.4603 14.4804 12.8424C13.9617 13.0882 13.2792 13.2383 12.433 13.2929C12.8152 13.484 13.095 13.6819 13.2724 13.8866C13.4499 14.0914 13.5659 14.4121 13.6205 14.8489V16.1388L13.6615 17.3877C13.7433 17.5242 13.8389 17.6402 13.9481 17.7358C14.0573 17.8314 14.1529 17.8996 14.2347 17.9406C14.3166 17.9815 14.3439 18.0429 14.3166 18.1248C14.2893 18.2067 14.1801 18.2477 13.9891 18.2477C13.525 18.2477 13.1564 18.0839 12.8835 17.7563C12.8016 17.6198 12.7606 17.456 12.7606 17.2649V15.2994C12.7606 15.081 12.706 14.924 12.5968 14.8285C12.4876 14.7329 12.3784 14.6715 12.2692 14.6442V17.2239C12.2692 17.688 12.3238 17.9883 12.433 18.1248C12.5422 18.2613 12.6105 18.3978 12.6378 18.5343C12.6651 18.5616 12.6446 18.582 12.5764 18.5957C12.5081 18.6093 12.3921 18.5889 12.2283 18.5343C11.8734 18.4524 11.6277 18.2681 11.4912 17.9815C11.3547 17.6948 11.2865 17.3877 11.2865 17.0601V14.5214H10.7541V17.0602C10.7541 17.3878 10.6859 17.7017 10.5494 18.002C10.3583 18.3842 10.0034 18.5889 9.48475 18.6162C9.40286 18.5889 9.36191 18.5616 9.36191 18.5343C9.38921 18.507 9.4711 18.3705 9.6076 18.1249C9.6349 18.0703 9.66903 17.9611 9.70998 17.7973C9.75095 17.6335 9.77141 17.4424 9.77141 17.224V14.6442C9.66222 14.6715 9.55983 14.7329 9.46429 14.8285C9.36874 14.9241 9.32096 15.081 9.32096 15.2994V17.2649C9.32096 17.456 9.28001 17.6198 9.19812 17.7563C8.95243 18.0839 8.58389 18.2477 8.09253 18.2477C7.90144 18.2477 7.79225 18.2068 7.76495 18.1249C7.73763 18.0703 7.74446 18.0225 7.78543 17.9815C7.8264 17.9406 7.88781 17.8928 7.96971 17.8382C8.05161 17.7836 8.1062 17.7426 8.1335 17.7154C8.2427 17.6335 8.32457 17.5243 8.37919 17.3878C8.46109 17.2786 8.48155 16.992 8.4406 16.5279C8.39966 16.0638 8.39282 15.7635 8.42012 15.627C7.71033 15.8727 6.98693 15.7498 6.24984 15.2585C6.03145 15.0401 5.81306 14.7261 5.59467 14.3167C5.43088 14.0164 5.10329 13.6615 4.61193 13.252Z" fill="#393D48"/>
</g>
<defs>
<clipPath id="clip0">
<rect width="20.9655" height="20.9655" fill="white" transform="translate(0.51709 0.51709)"/>
</clipPath>
</defs>
</svg>
