<svg width="73" height="72" viewBox="0 0 73 72" fill="none" xmlns="http://www.w3.org/2000/svg">
<g clip-path="url(#clip0)">
<path d="M13.3694 51.8354L21.5957 7.12866L63.6135 18.3873L48.3843 61.2176L29.4695 61.7787L13.3694 51.8354Z" fill="#E44D26"/>
<path d="M59.1739 20.9506L41.6665 16.2595L30.1733 59.1527L45.352 58.5287L59.1739 20.9506Z" fill="#F16529"/>
<path d="M24.4226 35.0946L27.1284 17.9934L54.2649 25.2646L51.9822 30.2823L30.9733 24.653L30.2068 31.0151L49.4649 36.1753L43.2577 52.3382L31.815 53.0251L22.2488 46.7089L23.719 37.7207L28.9712 39.128L28.6738 43.7394L33.4569 46.8975L39.1782 46.5541L41.93 39.7857L24.4226 35.0946Z" fill="white"/>
</g>
<defs>
<clipPath id="clip0">
<rect width="58" height="58" fill="white" transform="translate(16) rotate(15)"/>
</clipPath>
</defs>
</svg>
