<svg width="73" height="72" fill="none" xmlns="http://www.w3.org/2000/svg"><g clip-path="url(#a)"><path d="M13.37 51.835 21.595 7.13l42.017 11.258-15.229 42.83-18.915.562-16.1-9.944z" fill="#E44D26"/><path d="m59.174 20.95-17.508-4.69-11.493 42.893 15.179-.624L59.174 20.95z" fill="#F16529"/><path d="m24.423 35.095 2.705-17.102 27.137 7.272-2.283 5.017-21.009-5.629-.766 6.362 19.258 5.16-6.207 16.163-11.443.687-9.566-6.316 1.47-8.988 5.252 1.407-.297 4.611 4.783 3.159 5.721-.344 2.752-6.768-17.507-4.691z" fill="#fff"/></g><defs><clipPath id="a"><path fill="#fff" transform="rotate(15 8 60.766)" d="M0 0h58v58H0z"/></clipPath></defs></svg>