<svg width="58" height="58" fill="none" xmlns="http://www.w3.org/2000/svg"><circle cx="29.799" cy="29.799" r="26.074" fill="#0769AD"/><path d="M42.197 24.996c2.341 0 4.485-.78 6.142-2.076-1.72 2.267-4.57 3.75-7.796 3.75-5.255 0-9.514-3.934-9.514-8.786 0-2.69 1.31-5.098 3.372-6.71-1.082 1.427-1.717 3.163-1.717 5.037 0 4.852 4.259 8.785 9.513 8.785z" fill="#78CFF5"/><path d="M48.248 31.025c-2.523 1.98-5.79 3.174-9.36 3.174-7.995 0-14.477-5.993-14.477-13.387 0-2.867.975-5.524 2.635-7.703-3.13 2.456-5.117 6.12-5.117 10.214 0 7.393 6.482 13.386 14.477 13.386 4.895 0 9.222-2.245 11.842-5.684z" fill="#78CFF5"/><path d="M48.423 38.683c-3.597 3.432-8.58 5.557-14.085 5.557-10.965 0-19.855-8.429-19.855-18.826 0-3.294.893-6.391 2.461-9.085-3.566 3.403-5.77 8.092-5.77 13.269 0 10.397 8.89 18.825 19.855 18.825 7.49 0 14.013-3.933 17.394-9.74z" fill="#78CFF5"/></svg>