<svg width="74" height="73" fill="none" xmlns="http://www.w3.org/2000/svg"><g clip-path="url(#a)"><rect x="20.371" y="4.545" width="50.75" height="50.75" rx="4.415" transform="rotate(17.45 20.371 4.545)" fill="#FFCA28"/><path d="m37.107 54.052 4.306-1.239c.004.966 1.117 3.606 3.352 4.309 2.234.702 3.655-.192 3.91-1.001.693-2.205-1.344-3.7-2.323-4.418a6.667 6.667 0 0 1-.377-.288 6.612 6.612 0 0 0-.202-.163c-1.072-.849-5.029-3.98-3.464-8.96 1.725-5.486 7.217-4.453 8.414-4.076.783.246 4.518 1.526 5.286 5.64l-4.217 1.326c-.275-1.774-1.375-2.678-2.15-2.921-1.916-.602-2.757.676-2.957 1.315-.564 1.794 1.264 3.252 2.808 4.483.404.322.788.628 1.105.921 1.63 1.508 3.985 3.875 2.52 8.537-.735 2.336-3.882 5.5-8.813 3.95-6.624-2.082-7.13-6.61-7.198-7.415zM19.67 49.085l4.455-1.19c.016.969.639 2.942 2.28 3.458 1.641.516 3.011-.906 3.266-1.715l4.998-15.899 4.569 1.436-4.998 15.9c-.616 2.216-3.21 6.22-8.578 4.532-4.935-1.551-6.065-5.13-5.993-6.522z" fill="#3E3E3E"/></g><defs><clipPath id="a"><path fill="#fff" transform="rotate(17.451 9 58.642)" d="M0 0h58v58H0z"/></clipPath></defs></svg>