<svg width="38" height="38" fill="none" xmlns="http://www.w3.org/2000/svg"><circle cx="19" cy="19" r="19" fill="#4AA200"/><g clip-path="url(#a)"><path d="M8.517 10.055c0-.826.694-1.496 1.55-1.496h17.866c.856 0 1.55.67 1.55 1.496v17.89c0 .826-.694 1.496-1.55 1.496H10.067c-.856 0-1.55-.67-1.55-1.496v-17.89z" fill="#069"/><path d="M14.888 26.034v-9.401h-3.137v9.4h3.138zM13.32 15.35c1.094 0 1.775-.722 1.775-1.624-.02-.923-.681-1.625-1.754-1.625-1.074 0-1.775.702-1.775 1.624 0 .903.68 1.625 1.734 1.625h.02zm3.305 10.684h3.137v-5.25c0-.28.02-.561.103-.762.227-.561.743-1.143 1.61-1.143 1.135 0 1.589.862 1.589 2.126v5.029h3.137v-5.39c0-2.888-1.547-4.231-3.611-4.231-1.693 0-2.436.942-2.849 1.583h.021v-1.363h-3.137c.04.882 0 9.401 0 9.401z" fill="#fff"/></g><defs><clipPath id="a"><path fill="#fff" transform="translate(8.517 8.517)" d="M0 0h20.965v20.965H0z"/></clipPath></defs></svg>