<svg width="38" height="38" fill="none" xmlns="http://www.w3.org/2000/svg"><circle cx="19" cy="19" r="19" fill="#4AA200"/><path d="M9.828 16.35c0-2.283 0-3.424.444-4.297a4.076 4.076 0 0 1 1.781-1.781c.873-.444 2.014-.444 4.297-.444h5.3c2.283 0 3.425 0 4.297.444a4.076 4.076 0 0 1 1.781 1.781c.444.873.444 2.014.444 4.297v5.3c0 2.283 0 3.425-.444 4.297a4.076 4.076 0 0 1-1.781 1.781c-.872.444-2.014.444-4.297.444h-5.3c-2.283 0-3.424 0-4.297-.444a4.076 4.076 0 0 1-1.781-1.781c-.444-.872-.444-2.014-.444-4.297v-5.3z" fill="#fff"/><path d="m22.965 14.101-3.923 3.061-4.012-3.06.005.004v4.287l3.962 3.127 3.968-3.007v-4.412z" fill="#EA4335"/><path d="m23.994 13.357-1.03.744v4.413l3.242-2.49v-1.498s-.394-2.142-2.212-1.17z" fill="#FBBC05"/><path d="M22.964 18.514v5.723h2.485s.707-.073.758-.88v-7.332l-3.243 2.489z" fill="#34A853"/><path d="M15.035 24.241v-5.848l-.005-.004.005 5.852zM15.03 14.102l-1.025-.74c-1.818-.973-2.212 1.167-2.212 1.167v1.5l3.237 2.36v-4.287z" fill="#C5221F"/><path d="M15.03 14.102v4.287l.005.004v-4.287l-.005-.004z" fill="#C5221F"/><path d="M11.793 16.03v7.333c.05.806.758.878.758.878h2.484l-.005-5.852-3.237-2.36z" fill="#4285F4"/></svg>