<svg width="64" height="64" viewBox="0 0 64 64" fill="none" xmlns="http://www.w3.org/2000/svg">
<g clip-path="url(#clip0)">
<path d="M55.8279 26.88C55.8279 24.7138 54.2525 23.04 52.2833 22.8431C53.5633 22.1539 54.351 20.7754 54.351 19.2C54.351 16.9355 52.5786 15.0646 50.4126 15.0646C50.3141 15.0646 50.3141 15.0646 50.2156 15.0646C50.3141 14.7693 50.4126 14.4738 50.4126 14.08C50.4126 11.8154 48.6402 9.94455 46.4741 9.94455C45.7849 9.94455 45.1941 10.1415 44.6034 10.5354C44.4064 8.36918 42.7327 6.69531 40.665 6.69531C38.4988 6.69531 36.7266 8.56603 36.7266 10.8307C36.7266 13.0954 36.7266 42.4369 36.7266 42.4369C36.7266 44.7014 38.4989 46.5723 40.665 46.5723C42.7327 46.5723 44.5051 44.7999 44.6034 42.6339C45.2926 43.2247 46.0803 43.6185 46.9665 43.6185C49.1327 43.6185 50.9049 41.7478 50.9049 39.4831C50.9049 38.7939 50.7079 38.2031 50.4126 37.6124C50.6095 37.6124 50.7079 37.7109 50.9049 37.7109C53.0711 37.7109 54.8433 35.8402 54.8433 33.5755C54.8433 32.394 54.351 31.3109 53.5633 30.5232C54.9417 29.8339 55.8279 28.5539 55.8279 26.88Z" fill="#72CA1A"/>
<path d="M40.6648 47.6555C37.9079 47.6555 35.7417 45.391 35.7417 42.5356V10.9293C35.7417 8.07389 38.0063 5.80933 40.6648 5.80933C42.7325 5.80933 44.6032 7.18784 45.2925 9.25554C45.6864 9.15705 46.0802 9.05856 46.4741 9.05856C49.231 9.05856 51.3972 11.3231 51.3972 14.1785C51.3972 14.1785 51.3972 14.1785 51.3972 14.277C53.6617 14.7693 55.3356 16.837 55.3356 19.2986C55.3356 20.4801 54.9417 21.6617 54.1541 22.5478C55.7294 23.434 56.7141 25.1079 56.7141 26.9786C56.7141 28.4555 56.1233 29.834 55.0402 30.8187C55.5326 31.6063 55.8279 32.591 55.8279 33.674C55.8279 36.2341 54.0556 38.3018 51.791 38.6956C51.8895 38.991 51.8895 39.2865 51.8895 39.5818C51.8895 42.4372 49.6249 44.7018 46.9664 44.7018C46.3756 44.7018 45.7849 44.6033 45.194 44.3079C44.5047 46.277 42.7325 47.6555 40.6648 47.6555ZM40.6648 7.68005C38.9909 7.68005 37.7109 9.15693 37.7109 10.8308V42.437C37.7109 44.2093 39.0894 45.5877 40.6648 45.5877C42.2402 45.5877 43.5202 44.3077 43.6187 42.6338C43.6187 42.24 43.914 41.9446 44.2095 41.7476C44.505 41.5506 44.8987 41.6491 45.1942 41.8461C46.4742 42.9292 48.0496 42.7323 49.0342 41.6491C49.6251 41.0583 49.9204 40.2706 49.9204 39.3846C49.9204 38.8922 49.8219 38.4984 49.5266 37.9077C49.3296 37.6123 49.4281 37.2185 49.6251 36.923C49.822 36.6277 50.2159 36.4307 50.5112 36.5292C50.6097 36.5292 50.7082 36.5292 50.9051 36.6277C52.5789 36.6277 53.859 35.2492 53.859 33.4769C53.859 32.5908 53.5636 31.8031 52.8743 31.2124C52.7758 31.0155 52.6773 30.72 52.6773 30.4247C52.6773 30.1293 52.8743 29.8339 53.1696 29.7355C54.1543 29.1447 54.8435 28.0616 54.8435 26.9786C54.8435 25.4032 53.662 24.0247 52.1851 23.8278C51.7913 23.8278 51.3974 23.434 51.2989 23.0402C51.2004 22.6463 51.3974 22.154 51.7913 21.9571C52.7759 21.3663 53.3666 20.3818 53.3666 19.2002C53.3666 17.4279 52.0866 16.0495 50.5112 16.0495C50.4127 16.0495 50.3143 16.0495 50.3143 16.0495C50.0189 16.0495 49.7234 15.951 49.5266 15.6556C49.3296 15.4587 49.2312 15.0648 49.3296 14.7695L49.4281 14.4741C49.5266 14.2771 49.5266 14.0803 49.5266 13.9818C49.5266 12.2094 48.1481 10.831 46.5727 10.831C46.1788 10.831 45.6865 10.9295 45.1942 11.2249C44.8988 11.4219 44.505 11.4219 44.2095 11.2249C43.914 11.0279 43.7172 10.7326 43.7172 10.4372C43.4217 8.96007 42.1417 7.68005 40.6648 7.68005Z" fill="#193651"/>
<path d="M44.7015 21.5631C44.1106 21.5631 43.7168 21.1692 43.7168 20.5784C43.7168 19.9876 44.1106 19.5938 44.7015 19.5938C45.7845 19.5938 46.8677 19.1014 47.7537 18.2152C48.6399 17.3291 49.1322 16.1475 49.1322 15.0645C49.1322 14.4737 49.5261 14.0798 50.1169 14.0798C50.7077 14.0798 51.1016 14.4737 51.1016 15.0645C51.1016 16.6399 50.4124 18.3137 49.1324 19.5938C47.9507 20.8739 46.3753 21.5631 44.7015 21.5631Z" fill="#193651"/>
<path d="M44.6034 43.7169C44.0126 43.7169 43.6187 43.323 43.6187 42.7322C43.6187 41.2553 42.1419 39.8768 40.6648 39.8768C40.074 39.8768 39.6802 39.483 39.6802 38.8921C39.6802 38.3013 40.074 37.9075 40.6648 37.9075C43.2249 37.9075 45.5879 40.172 45.5879 42.7321C45.5881 43.323 45.0957 43.7169 44.6034 43.7169Z" fill="#193651"/>
<path d="M47.4588 36.6278C46.868 36.6278 46.4741 36.2339 46.4741 35.6431C46.4741 32.2954 50.3142 29.637 53.6618 29.637C54.2526 29.637 54.6465 30.0308 54.6465 30.6216C54.6465 31.2125 54.2526 31.6063 53.6618 31.6063C51.2987 31.6063 48.4433 33.477 48.4433 35.6432C48.4435 36.1354 48.0496 36.6278 47.4588 36.6278Z" fill="#193651"/>
<path d="M17.7231 26.4864C17.7231 28.6526 19.2985 30.3265 21.2677 30.5234C19.9877 31.2126 19.2 32.5911 19.2 34.1664C19.2 36.431 20.9724 38.3019 23.1385 38.3019C23.2369 38.3019 23.2369 38.3019 23.3354 38.3019C23.2369 38.5972 23.1385 38.8927 23.1385 39.2865C23.1385 41.5511 24.9108 43.4219 27.0769 43.4219C27.7661 43.4219 28.3569 43.225 28.9476 42.8311C29.1446 44.9973 30.8183 46.6712 32.886 46.6712C35.0522 46.6712 36.8245 44.8004 36.8245 42.5358C36.8245 40.2711 36.8245 10.9296 36.8245 10.9296C36.8245 8.66504 35.0521 6.79419 32.886 6.79419C30.8183 6.79419 29.046 8.56654 28.9476 10.7326C28.2584 10.1418 27.4707 9.74795 26.5845 9.74795C24.4183 9.74795 22.6461 11.6187 22.6461 13.8834C22.6461 14.5726 22.8431 15.1634 23.1385 15.7541C22.9415 15.7541 22.8431 15.6556 22.6461 15.6556C20.4799 15.6556 18.7077 17.5263 18.7077 19.791C18.7077 20.9725 19.2 22.0556 19.9877 22.8432C18.6093 23.5326 17.7231 24.9111 17.7231 26.4864Z" fill="#72CA1A"/>
<path d="M32.8862 47.6555C30.8185 47.6555 28.9478 46.277 28.2585 44.2094C27.8646 44.3079 27.4708 44.4064 27.0769 44.4064C24.32 44.4064 22.1538 42.1418 22.1538 39.2865C22.1538 39.2865 22.1538 39.2865 22.1538 39.188C19.8893 38.6956 18.2154 36.6279 18.2154 34.1664C18.2154 32.9848 18.6093 31.8033 19.397 30.9171C17.8216 30.031 16.8369 28.3571 16.8369 26.4864C16.8369 25.0095 17.4277 23.631 18.5108 22.6463C18.0184 21.8586 17.7231 20.874 17.7231 19.7909C17.7231 17.2309 19.4954 15.1632 21.76 14.7693C21.6615 14.474 21.6615 14.1785 21.6615 13.8832C21.6615 11.0278 23.9261 8.76321 26.5846 8.76321C27.1754 8.76321 27.7661 8.8617 28.357 9.15705C29.0462 7.18784 30.8185 5.80933 32.9847 5.80933C35.7416 5.80933 37.9078 8.07389 37.9078 10.9293V42.5354C37.8093 45.3908 35.6431 47.6555 32.8862 47.6555ZM28.9478 41.8462C29.1448 41.8462 29.2431 41.8462 29.4401 41.9447C29.7355 42.1417 29.9325 42.4371 29.9325 42.7324C30.0309 44.4063 31.311 45.5878 32.8863 45.5878C34.5602 45.5878 35.8402 44.1109 35.8402 42.4371V10.9293C35.8402 9.15693 34.4617 7.77854 32.8863 7.77854C31.311 7.77854 30.0309 9.05856 29.9325 10.7324C29.9325 11.1263 29.6371 11.4216 29.3416 11.6186C29.0463 11.8156 28.6524 11.7171 28.357 11.5201C27.7661 11.0278 27.1754 10.8309 26.5846 10.8309C24.9107 10.8309 23.6307 12.3078 23.6307 13.9817C23.6307 14.474 23.7292 14.8678 24.0246 15.4585C24.2216 15.7539 24.1231 16.1477 23.9261 16.4432C23.7291 16.7386 23.3352 16.9355 23.0399 16.837C22.9414 16.837 22.8429 16.837 22.6461 16.7386C21.8584 16.7386 21.1692 17.0339 20.5784 17.6247C19.9875 18.2156 19.6922 19.0032 19.6922 19.8893C19.6922 20.7755 19.9875 21.5632 20.6768 22.1539C20.8738 22.3508 20.9722 22.6462 20.9722 22.9415C20.9722 23.2369 20.7752 23.5324 20.4799 23.6307C19.4952 24.2216 18.806 25.3046 18.806 26.3876C18.806 27.963 19.9875 29.3415 21.4644 29.5384C21.8582 29.5384 22.2521 29.9322 22.3506 30.3261C22.4491 30.7199 22.2521 31.2122 21.8582 31.4091C20.7752 31.9999 20.1844 32.9845 20.1844 34.166C20.1844 35.9384 21.4644 37.3167 23.0398 37.3167C23.1383 37.3167 23.2368 37.3167 23.2368 37.3167C23.5321 37.3167 23.8276 37.4152 24.0244 37.7106C24.2214 37.9076 24.3198 38.3014 24.2214 38.5968L24.1229 38.8921C24.1229 38.9906 24.1229 39.1875 24.1229 39.286C24.1229 41.0583 25.5014 42.4367 27.0768 42.4367C27.4707 42.4367 27.963 42.3382 28.4553 42.0429C28.6523 41.9447 28.8493 41.8462 28.9478 41.8462Z" fill="#193651"/>
<path d="M32.8861 15.4587C30.3261 15.4587 28.0615 13.1941 28.0615 10.6341C28.0615 10.0433 28.4554 9.64941 29.0462 9.64941C29.637 9.64941 30.0309 10.0433 30.0309 10.6341C30.0309 12.111 31.5077 13.4895 32.9847 13.4895C33.5756 13.4895 33.9694 13.8833 33.9694 14.4741C33.8708 14.9664 33.3785 15.4587 32.8861 15.4587Z" fill="#193651"/>
<path d="M19.8895 23.8278C19.2986 23.8278 18.9048 23.434 18.9048 22.8432C18.9048 22.2523 19.2986 21.8585 19.8895 21.8585C21.071 21.8585 22.4495 21.3662 23.434 20.5785C24.0249 20.0861 25.1079 19.1016 25.1079 17.8216C25.1079 17.2308 25.5017 16.8369 26.0926 16.8369C26.6834 16.8369 27.0772 17.2308 27.0772 17.8216C27.0772 19.397 26.1911 20.9723 24.6157 22.1539C23.2372 23.2371 21.4648 23.8278 19.8895 23.8278Z" fill="#193651"/>
<path d="M36.8245 34.0678C36.2337 34.0678 35.8398 33.674 35.8398 33.0832C35.8398 29.8339 38.4983 27.1755 41.7475 27.1755C42.3383 27.1755 42.7322 27.5694 42.7322 28.1602C42.7322 28.751 42.3383 29.1449 41.7475 29.1449C39.5813 29.1449 37.8091 30.9172 37.8091 33.0833C37.8092 33.674 37.4153 34.0678 36.8245 34.0678Z" fill="#193651"/>
<path d="M31.7049 25.1076C31.1141 25.1076 30.7202 24.7138 30.7202 24.123C30.7202 20.8737 33.3786 18.2153 36.6279 18.2153C37.2187 18.2153 37.6125 18.6092 37.6125 19.2C37.6125 19.7908 37.2187 20.1847 36.6279 20.1847C34.4617 20.1847 32.6894 21.957 32.6894 24.1231C32.6896 24.7138 32.2956 25.1076 31.7049 25.1076Z" fill="#193651"/>
<path d="M32.9847 34.6587C32.9847 26.6833 26.3878 20.3817 18.314 20.7756C11.5201 21.0709 5.80936 26.4863 5.12004 33.3787C4.62771 38.6956 7.08926 43.4217 11.0277 46.1786C12.1107 46.9663 12.8 48.2463 12.8 49.5263V58.9787H25.3046V49.5263C25.3046 48.2463 25.8955 46.9663 26.9785 46.1786C30.5232 43.6187 32.9847 39.3848 32.9847 34.6587Z" fill="white"/>
<path d="M25.2062 59.8646H12.8001C12.2093 59.8646 11.8155 59.4707 11.8155 58.8799V49.4275C11.8155 48.3445 11.3231 47.4583 10.437 46.8675C6.00619 43.8153 3.64314 38.4983 4.13547 33.1814C4.82466 25.8952 10.9293 20.0859 18.2154 19.6921C26.7816 19.2983 33.9693 26.1906 33.9693 34.6583C33.9693 39.5814 31.6062 44.1106 27.5693 46.966C26.7816 47.5568 26.2893 48.4429 26.2893 49.526V58.9784C26.1909 59.3722 25.7969 59.8646 25.2062 59.8646ZM13.7847 57.8952H24.3201V49.4275C24.3201 47.7537 25.1078 46.1783 26.4863 45.2921C29.834 42.8306 32.0001 38.8922 32.0001 34.6583C32.0001 27.2736 25.7969 21.366 18.4123 21.7598C12.0123 22.0552 6.79388 27.0767 6.10456 33.3782C5.61222 38.1043 7.67993 42.5351 11.6184 45.2921C12.9969 46.2768 13.7846 47.8522 13.7846 49.526C13.7847 49.526 13.7847 57.8952 13.7847 57.8952Z" fill="#193651"/>
<path d="M19.0031 24.123C18.8061 24.123 18.6092 24.123 18.5107 24.123C13.4892 24.32 9.0584 28.4553 8.56606 33.5754C8.17222 37.4155 9.84608 40.96 12.9968 43.2246C15.0645 44.6031 16.2461 46.9662 16.2461 49.4277V51.5939H21.7599V49.4276C21.7599 46.966 22.9414 44.603 24.9106 43.2245C27.766 41.2553 29.4398 38.006 29.4398 34.6583C29.4401 28.8492 24.7139 24.123 19.0031 24.123Z" fill="#72CA1A"/>
<path d="M60.3413 26.7816V26.6831C60.3413 26.1393 59.9005 25.6985 59.3567 25.6985C58.8129 25.6985 58.3721 26.1393 58.3721 26.6831V26.7816C58.3721 27.3254 58.8129 27.7662 59.3567 27.7662C59.9005 27.7662 60.3413 27.3254 60.3413 26.7816Z" fill="#193651"/>
<path d="M55.3458 15.3701L55.395 15.4554C55.6669 15.9263 56.269 16.0878 56.74 15.8159C57.211 15.5441 57.3724 14.9419 57.1006 14.471L57.0513 14.3857C56.7795 13.9147 56.1773 13.7533 55.7064 14.0251C55.2354 14.2969 55.074 14.8991 55.3458 15.3701Z" fill="#193651"/>
<path d="M48.0332 8.1083L48.1185 8.15758C48.5893 8.42962 49.1915 8.26851 49.4635 7.79773C49.7355 7.32695 49.5744 6.72478 49.1036 6.45274L49.0184 6.40347C48.5476 6.13143 47.9454 6.29254 47.6734 6.76332C47.4014 7.2341 47.5625 7.83627 48.0332 8.1083Z" fill="#193651"/>
<path d="M36.8248 48.3296H36.7263C36.1825 48.3296 35.7417 48.7704 35.7417 49.3142C35.7417 49.858 36.1825 50.2988 36.7263 50.2988H36.8248C37.3686 50.2988 37.8094 49.858 37.8094 49.3142C37.8094 48.7704 37.3686 48.3296 36.8248 48.3296Z" fill="#193651"/>
<path d="M36.8248 3.06763H36.7263C36.1825 3.06763 35.7417 3.50845 35.7417 4.05223C35.7417 4.59602 36.1825 5.03684 36.7263 5.03684H36.8248C37.3686 5.03684 37.8094 4.59602 37.8094 4.05223C37.8094 3.50845 37.3686 3.06763 36.8248 3.06763Z" fill="#193651"/>
<path d="M48.0434 48.0356L48.1287 47.9863C48.5996 47.7145 48.7611 47.1123 48.4892 46.6414C48.2174 46.1704 47.6152 46.009 47.1443 46.2808L47.059 46.3301C46.588 46.6019 46.4266 47.204 46.6984 47.675C46.9702 48.146 47.5724 48.3074 48.0434 48.0356Z" fill="#193651"/>
<path d="M25.3896 7.08758L25.4749 7.03835C25.9458 6.76651 26.1073 6.16435 25.8354 5.69338C25.5636 5.2224 24.9614 5.06097 24.4905 5.33281L24.4052 5.38205C23.9342 5.65389 23.7728 6.25605 24.0446 6.72702C24.3164 7.19799 24.9186 7.35942 25.3896 7.08758Z" fill="#193651"/>
<path d="M57.056 39.0168L57.1053 38.9315C57.3772 38.4606 57.2159 37.8584 56.745 37.5865C56.2742 37.3146 55.672 37.4758 55.4 37.9467L55.3508 38.032C55.0789 38.5029 55.2402 39.1051 55.711 39.377C56.1819 39.6489 56.7841 39.4877 57.056 39.0168Z" fill="#193651"/>
<path d="M18.1158 15.4308L18.165 15.3454C18.4369 14.8745 18.2754 14.2723 17.8045 14.0005C17.3335 13.7286 16.7313 13.8901 16.4595 14.361L16.4103 14.4463C16.1384 14.9173 16.2998 15.5195 16.7708 15.7913C17.2418 16.0632 17.8439 15.9017 18.1158 15.4308Z" fill="#193651"/>
<path d="M3.4614 33.9693V33.8708C3.4614 33.3271 3.02058 32.8862 2.47679 32.8862C1.93301 32.8862 1.49219 33.3271 1.49219 33.8708V33.9693C1.49219 34.5131 1.93301 34.9539 2.47679 34.9539C3.02058 34.9539 3.4614 34.5131 3.4614 33.9693Z" fill="#193651"/>
<path d="M2.94306 43.0325L2.9923 43.1178C3.26419 43.5887 3.86636 43.75 4.33727 43.4781C4.80819 43.2063 4.96953 42.6041 4.69764 42.1332L4.64839 42.0479C4.3765 41.577 3.77434 41.4156 3.30342 41.6875C2.8325 41.9594 2.67116 42.5616 2.94306 43.0325Z" fill="#193651"/>
<path d="M10.6435 20.6098L10.7288 20.5606C11.1997 20.2887 11.3612 19.6866 11.0893 19.2156C10.8175 18.7446 10.2153 18.5832 9.74437 18.855L9.65906 18.9043C9.18809 19.1761 9.02666 19.7783 9.2985 20.2492C9.57034 20.7202 10.1725 20.8816 10.6435 20.6098Z" fill="#193651"/>
<path d="M5.6275 25.6817L5.67674 25.5964C5.94858 25.1254 5.78715 24.5233 5.31618 24.2514C4.84521 23.9796 4.24304 24.141 3.97121 24.612L3.92197 24.6973C3.65013 25.1683 3.81156 25.7705 4.28253 26.0423C4.7535 26.3141 5.35567 26.1527 5.6275 25.6817Z" fill="#193651"/>
<path d="M15.7539 58.8801V59.7663C15.7539 61.5387 17.2308 63.0155 19.0031 63.0155C20.7755 63.0155 22.2524 61.5387 22.2524 59.7663V58.8801H15.7539Z" fill="white"/>
<path d="M22.2522 57.8953H15.7537C15.1629 57.8953 14.769 58.2891 14.769 58.8799V59.7661C14.769 62.1292 16.6398 64 19.0029 64C21.3661 64 23.2369 62.1293 23.2369 59.7661V58.8799C23.2369 58.2892 22.7445 57.8953 22.2522 57.8953ZM19.0029 62.0307C17.8214 62.0307 16.8368 61.046 16.7384 59.8645H21.2676C21.1691 61.0461 20.1845 62.0307 19.0029 62.0307Z" fill="#193651"/>
<path d="M24.9106 34.4615C24.9106 34.4615 24.9106 34.56 24.9106 34.4615C26.2891 35.9384 25.1075 38.3015 23.2367 38.3015H21.169V36.2338C21.0705 34.2646 23.4336 33.0831 24.9106 34.4615Z" fill="white"/>
<path d="M23.1383 39.2861H21.0706C20.4798 39.2861 20.0859 38.8922 20.0859 38.3014V36.2337C20.0859 34.363 21.5628 32.886 23.4337 32.886C24.2213 32.886 25.009 33.1813 25.5999 33.7722L25.6984 33.8707C26.5845 34.7568 26.7814 36.0369 26.2892 37.3169C25.6984 38.4984 24.5168 39.2861 23.1383 39.2861ZM22.0553 37.3169H23.1383C23.8275 37.3169 24.2213 36.8245 24.4183 36.4307C24.5168 36.2337 24.7137 35.643 24.2213 35.1507C23.926 34.8553 23.729 34.7568 23.4337 34.7568C22.7445 34.7568 22.0552 35.2492 22.0552 36.1353V37.3169H22.0553Z" fill="#193651"/>
<path d="M13.0956 34.4615C13.0956 34.4615 13.0956 34.56 13.0956 34.4615C11.7171 35.9384 12.8986 38.3015 14.7695 38.3015H16.8372V36.2338C16.8372 34.2646 14.474 33.0831 13.0956 34.4615Z" fill="white"/>
<path d="M16.8373 39.2861H14.7696C13.4896 39.2861 12.2096 38.4984 11.7174 37.2184C11.225 36.0369 11.422 34.7568 12.3082 33.8707L12.4067 33.7722C12.9975 33.1813 13.7852 32.886 14.5729 32.886C16.4436 32.886 17.9206 34.3629 17.9206 36.2337V38.3014C17.8218 38.7938 17.428 39.2861 16.8373 39.2861ZM14.5726 34.8553C14.2773 34.8553 14.0803 34.9538 13.7849 35.1507C13.2926 35.643 13.4896 36.2337 13.4896 36.4307C13.6866 36.8245 14.0804 37.3169 14.7696 37.3169H15.8526V36.2338C15.8526 35.3477 15.1634 34.8553 14.5726 34.8553Z" fill="#193651"/>
<path d="M21.0706 52.5783C20.4798 52.5783 20.086 52.1844 20.086 51.5936V39.2859H17.8214V51.5936C17.8214 52.1844 17.4276 52.5783 16.8367 52.5783C16.2459 52.5783 15.8521 52.1844 15.8521 51.5936V38.3013C15.8521 37.7105 16.2459 37.3167 16.8367 37.3167H21.0706C21.6615 37.3167 22.0553 37.7105 22.0553 38.3013V51.5936C22.0553 52.0859 21.6615 52.5783 21.0706 52.5783Z" fill="#193651"/>
<path d="M27.077 52.5782H10.8309C10.24 52.5782 9.84619 52.1844 9.84619 51.5936C9.84619 51.0027 10.24 50.6089 10.8309 50.6089H27.077C27.6679 50.6089 28.0617 51.0027 28.0617 51.5936C28.0617 52.0859 27.6679 52.5782 27.077 52.5782Z" fill="#193651"/>
<path d="M27.077 56.2218H10.8309C10.24 56.2218 9.84619 55.8279 9.84619 55.2371C9.84619 54.6463 10.24 54.2524 10.8309 54.2524H27.077C27.6679 54.2524 28.0617 54.6463 28.0617 55.2371C28.0617 55.8279 27.6679 56.2218 27.077 56.2218Z" fill="#193651"/>
</g>
<defs>
<clipPath id="clip0">
<rect width="64" height="64" fill="white"/>
</clipPath>
</defs>
</svg>
