<svg width="64" height="64" fill="none" xmlns="http://www.w3.org/2000/svg"><g clip-path="url(#a)"><path d="M55.828 26.88c0-2.166-1.576-3.84-3.545-4.037 1.28-.69 2.068-2.068 2.068-3.643 0-2.264-1.772-4.135-3.938-4.135h-.197c.098-.296.197-.591.197-.985 0-2.265-1.773-4.135-3.939-4.135-.69 0-1.28.197-1.87.59-.198-2.166-1.871-3.84-3.939-3.84-2.166 0-3.938 1.871-3.938 4.136v31.606c0 2.264 1.772 4.135 3.938 4.135 2.068 0 3.84-1.772 3.938-3.938.69.59 1.477.984 2.364.984 2.166 0 3.938-1.87 3.938-4.135 0-.69-.197-1.28-.492-1.87.197 0 .295.098.492.098 2.166 0 3.938-1.87 3.938-4.136a4.32 4.32 0 0 0-1.28-3.052c1.379-.69 2.265-1.97 2.265-3.643z" fill="#72CA1A"/><path d="M40.665 47.656c-2.757 0-4.923-2.265-4.923-5.12V10.929c0-2.855 2.264-5.12 4.923-5.12 2.068 0 3.938 1.379 4.627 3.447.394-.099.788-.197 1.182-.197 2.757 0 4.923 2.264 4.923 5.12v.098c2.265.492 3.939 2.56 3.939 5.022 0 1.181-.394 2.363-1.182 3.249 1.575.886 2.56 2.56 2.56 4.43 0 1.477-.59 2.856-1.674 3.84.493.788.788 1.773.788 2.856 0 2.56-1.772 4.628-4.037 5.022.099.295.099.59.099.886 0 2.855-2.265 5.12-4.924 5.12-.59 0-1.181-.099-1.772-.394-.69 1.969-2.462 3.348-4.53 3.348zm0-39.976c-1.674 0-2.954 1.477-2.954 3.15v31.607c0 1.772 1.378 3.15 2.954 3.15 1.575 0 2.855-1.28 2.954-2.953 0-.394.295-.69.59-.886.296-.197.69-.099.985.098 1.28 1.083 2.856.886 3.84-.197.591-.59.886-1.378.886-2.264 0-.493-.098-.887-.393-1.477-.197-.296-.099-.69.098-.985.197-.295.59-.492.886-.394.099 0 .197 0 .394.099 1.674 0 2.954-1.379 2.954-3.151 0-.886-.295-1.674-.985-2.265a1.855 1.855 0 0 1-.197-.787.74.74 0 0 1 .493-.69c.984-.59 1.673-1.673 1.673-2.756 0-1.576-1.181-2.954-2.658-3.151-.394 0-.788-.394-.886-.788-.099-.394.098-.886.492-1.083.985-.59 1.576-1.575 1.576-2.757 0-1.772-1.28-3.15-2.856-3.15h-.197c-.295 0-.59-.099-.787-.394-.197-.197-.296-.591-.197-.886l.098-.296c.099-.197.099-.394.099-.492 0-1.773-1.379-3.151-2.954-3.151-.394 0-.886.099-1.379.394a.894.894 0 0 1-.985 0c-.295-.197-.492-.492-.492-.788-.295-1.477-1.575-2.757-3.052-2.757z" fill="#193651"/><path d="M44.702 21.563c-.591 0-.985-.394-.985-.985 0-.59.394-.984.985-.984 1.083 0 2.166-.493 3.052-1.379.886-.886 1.378-2.067 1.378-3.15 0-.591.394-.985.985-.985.59 0 .985.394.985.985 0 1.575-.69 3.249-1.97 4.529-1.181 1.28-2.757 1.97-4.43 1.97zM44.603 43.717c-.59 0-.984-.394-.984-.985 0-1.477-1.477-2.855-2.954-2.855-.591 0-.985-.394-.985-.985 0-.59.394-.985.985-.985 2.56 0 4.923 2.265 4.923 4.825 0 .591-.492.985-.985.985zM47.459 36.628c-.591 0-.985-.394-.985-.985 0-3.348 3.84-6.006 7.188-6.006.59 0 .985.394.985.985 0 .59-.394.984-.985.984-2.363 0-5.219 1.871-5.219 4.037a.986.986 0 0 1-.984.985z" fill="#193651"/><path d="M17.723 26.486c0 2.167 1.576 3.84 3.545 4.037-1.28.69-2.068 2.068-2.068 3.643 0 2.265 1.772 4.136 3.939 4.136h.196c-.098.295-.197.59-.197.984 0 2.265 1.773 4.136 3.939 4.136.69 0 1.28-.197 1.87-.59.198 2.165 1.871 3.84 3.939 3.84 2.166 0 3.938-1.872 3.938-4.136V10.93c0-2.265-1.772-4.136-3.938-4.136-2.068 0-3.84 1.773-3.938 3.939-.69-.591-1.477-.985-2.364-.985-2.166 0-3.938 1.87-3.938 4.135 0 .69.197 1.28.492 1.871-.197 0-.295-.098-.492-.098-2.166 0-3.938 1.87-3.938 4.135a4.32 4.32 0 0 0 1.28 3.052 4.051 4.051 0 0 0-2.265 3.643z" fill="#72CA1A"/><path d="M32.886 47.656c-2.068 0-3.938-1.379-4.628-3.447-.393.099-.787.197-1.181.197-2.757 0-4.923-2.264-4.923-5.12v-.098c-2.265-.492-3.939-2.56-3.939-5.022 0-1.181.394-2.363 1.182-3.249-1.575-.886-2.56-2.56-2.56-4.43 0-1.477.59-2.856 1.674-3.84-.493-.788-.788-1.773-.788-2.856 0-2.56 1.772-4.628 4.037-5.022-.099-.295-.099-.59-.099-.886 0-2.855 2.265-5.12 4.924-5.12.59 0 1.181.099 1.772.394.69-1.97 2.462-3.348 4.628-3.348 2.757 0 4.923 2.265 4.923 5.12v31.606c-.099 2.856-2.265 5.12-5.022 5.12zm-3.938-5.81c.197 0 .295 0 .492.099.295.197.492.492.492.787.099 1.674 1.379 2.856 2.954 2.856 1.674 0 2.954-1.477 2.954-3.15V10.928c0-1.772-1.378-3.15-2.954-3.15-1.575 0-2.855 1.28-2.954 2.953 0 .394-.295.69-.59.887-.296.197-.69.098-.985-.099-.59-.492-1.182-.69-1.772-.69-1.674 0-2.954 1.478-2.954 3.152 0 .492.098.886.394 1.477.197.295.098.689-.099.984-.197.296-.59.492-.886.394-.099 0-.197 0-.394-.098-.788 0-1.477.295-2.068.886-.59.59-.886 1.378-.886 2.264 0 .887.296 1.674.985 2.265.197.197.295.492.295.788a.74.74 0 0 1-.492.689c-.985.59-1.674 1.674-1.674 2.757 0 1.575 1.181 2.953 2.658 3.15.394 0 .788.394.887.788.098.394-.099.886-.493 1.083-1.083.59-1.674 1.575-1.674 2.757 0 1.772 1.28 3.15 2.856 3.15h.197c.295 0 .59.1.787.395.197.197.296.59.197.886l-.098.295v.394c0 1.772 1.378 3.15 2.954 3.15.394 0 .886-.098 1.378-.393.197-.098.394-.197.493-.197z" fill="#193651"/><path d="M32.886 15.459c-2.56 0-4.825-2.265-4.825-4.825 0-.59.394-.985.985-.985s.985.394.985.985c0 1.477 1.477 2.855 2.954 2.855.59 0 .984.394.984.985-.098.492-.59.985-1.083.985zM19.89 23.828c-.591 0-.985-.394-.985-.985 0-.59.394-.985.985-.985 1.181 0 2.56-.492 3.544-1.28.59-.492 1.674-1.476 1.674-2.756 0-.591.394-.985.985-.985.59 0 .984.394.984.985 0 1.575-.886 3.15-2.461 4.332-1.379 1.083-3.151 1.674-4.726 1.674zM36.825 34.068c-.591 0-.985-.394-.985-.985 0-3.25 2.658-5.907 5.907-5.907.591 0 .985.393.985.984s-.394.985-.984.985a3.95 3.95 0 0 0-3.939 3.938c0 .591-.394.985-.984.985zM31.705 25.108c-.59 0-.985-.394-.985-.985 0-3.25 2.659-5.908 5.908-5.908.59 0 .984.394.984.985 0 .59-.393.985-.984.985a3.95 3.95 0 0 0-3.939 3.938c0 .59-.393.985-.984.985z" fill="#193651"/><path d="M32.985 34.659c0-7.976-6.597-14.277-14.671-13.883-6.794.295-12.505 5.71-13.194 12.603-.492 5.317 1.97 10.043 5.908 12.8 1.083.787 1.772 2.067 1.772 3.347v9.453h12.505v-9.453c0-1.28.59-2.56 1.674-3.347 3.544-2.56 6.006-6.794 6.006-11.52z" fill="#fff"/><path d="M25.206 59.865H12.8c-.59 0-.985-.394-.985-.985v-9.453c0-1.083-.492-1.969-1.378-2.56-4.43-3.052-6.794-8.369-6.302-13.686.69-7.286 6.794-13.095 14.08-13.489 8.567-.394 15.754 6.499 15.754 14.966 0 4.923-2.363 9.453-6.4 12.308a3.125 3.125 0 0 0-1.28 2.56v9.452c-.098.394-.492.887-1.083.887zm-11.421-1.97H24.32v-8.468c0-1.673.788-3.249 2.166-4.135C29.834 42.831 32 38.892 32 34.658c0-7.384-6.203-13.292-13.588-12.898-6.4.295-11.618 5.317-12.307 11.618-.493 4.726 1.575 9.157 5.513 11.914a5.181 5.181 0 0 1 2.167 4.234v8.37z" fill="#193651"/><path d="M19.003 24.123h-.492c-5.022.197-9.453 4.332-9.945 9.452-.394 3.84 1.28 7.385 4.43 9.65 2.069 1.378 3.25 3.741 3.25 6.203v2.166h5.514v-2.166c0-2.462 1.181-4.825 3.15-6.203 2.856-1.97 4.53-5.219 4.53-8.567 0-5.809-4.726-10.535-10.437-10.535z" fill="#72CA1A"/><path d="M60.341 26.782v-.099a.985.985 0 1 0-1.969 0v.099a.985.985 0 1 0 1.97 0zM55.346 15.37l.049.085a.985.985 0 0 0 1.706-.984l-.05-.085a.985.985 0 1 0-1.705.984zM48.033 8.108l.085.05a.984.984 0 1 0 .986-1.705l-.086-.05a.984.984 0 0 0-.985 1.705zM36.825 48.33h-.099a.985.985 0 1 0 0 1.969h.099a.985.985 0 1 0 0-1.97zM36.825 3.068h-.099a.985.985 0 1 0 0 1.969h.099a.985.985 0 1 0 0-1.97zM48.043 48.036l.086-.05a.985.985 0 1 0-.985-1.705l-.085.05a.985.985 0 1 0 .984 1.705zM25.39 7.088l.085-.05a.985.985 0 0 0-.985-1.705l-.085.049a.985.985 0 1 0 .985 1.706zM57.056 39.017l.05-.086a.985.985 0 0 0-1.706-.984l-.05.085a.985.985 0 0 0 1.706.985zM18.116 15.43l.049-.085a.985.985 0 1 0-1.706-.984l-.049.085a.985.985 0 1 0 1.706.985zM3.461 33.97v-.1a.985.985 0 0 0-1.969 0v.1a.985.985 0 1 0 1.97 0zM2.943 43.032l.05.086a.985.985 0 0 0 1.705-.985l-.05-.085a.985.985 0 1 0-1.705.984zM10.643 20.61l.086-.05a.985.985 0 0 0-.985-1.705l-.085.05a.985.985 0 1 0 .984 1.705zM5.628 25.682l.049-.086a.985.985 0 0 0-1.706-.984l-.049.085a.985.985 0 1 0 1.706.985z" fill="#193651"/><path d="M15.754 58.88v.886c0 1.773 1.477 3.25 3.25 3.25 1.771 0 3.248-1.477 3.248-3.25v-.886h-6.498z" fill="#fff"/><path d="M22.252 57.895h-6.498c-.591 0-.985.394-.985.985v.886A4.203 4.203 0 0 0 19.003 64a4.203 4.203 0 0 0 4.234-4.234v-.886a.987.987 0 0 0-.985-.985zm-3.25 4.136c-1.18 0-2.165-.985-2.264-2.166h4.53c-.099 1.181-1.084 2.166-2.265 2.166z" fill="#193651"/><path d="M24.91 34.462s0 .098 0 0c1.38 1.476.198 3.84-1.673 3.84h-2.068v-2.068c-.099-1.97 2.265-3.15 3.742-1.773z" fill="#fff"/><path d="M23.138 39.286h-2.067c-.591 0-.985-.394-.985-.985v-2.067a3.32 3.32 0 0 1 3.348-3.348c.787 0 1.575.295 2.166.886l.098.099c.886.886 1.083 2.166.591 3.446-.59 1.181-1.772 1.97-3.15 1.97zm-1.083-1.97h1.083c.69 0 1.083-.492 1.28-.885.099-.197.296-.788-.197-1.28-.295-.296-.492-.394-.787-.394-.69 0-1.379.492-1.379 1.378v1.182z" fill="#193651"/><path d="M13.096 34.462s0 .098 0 0c-1.379 1.476-.197 3.84 1.674 3.84h2.067v-2.068c0-1.97-2.363-3.15-3.741-1.773z" fill="#fff"/><path d="M16.837 39.286H14.77c-1.28 0-2.56-.788-3.053-2.068-.492-1.181-.295-2.461.591-3.347l.099-.099a3.054 3.054 0 0 1 2.166-.886 3.32 3.32 0 0 1 3.348 3.348V38.3c-.1.493-.493.985-1.084.985zm-2.264-4.43c-.296 0-.493.098-.788.295-.492.492-.295 1.083-.295 1.28.197.394.59.886 1.28.886h1.083v-1.083c0-.886-.69-1.379-1.28-1.379z" fill="#193651"/><path d="M21.07 52.578c-.59 0-.984-.394-.984-.984V39.286h-2.265v12.308c0 .59-.393.984-.984.984s-.985-.394-.985-.984V38.3c0-.59.394-.984.985-.984h4.234c.59 0 .984.394.984.984v13.293a.987.987 0 0 1-.984.984z" fill="#193651"/><path d="M27.077 52.578H10.831c-.591 0-.985-.394-.985-.984 0-.591.394-.985.985-.985h16.246c.59 0 .985.394.985.985a.987.987 0 0 1-.985.984zM27.077 56.222H10.831c-.591 0-.985-.394-.985-.985 0-.59.394-.985.985-.985h16.246c.59 0 .985.394.985.985 0 .59-.394.985-.985.985z" fill="#193651"/></g><defs><clipPath id="a"><path fill="#fff" d="M0 0h64v64H0z"/></clipPath></defs></svg>