<svg width="48" height="48" fill="none" xmlns="http://www.w3.org/2000/svg"><path d="M28.018 23.964c0-2.152-1.8-3.896-4.018-3.896-2.22 0-4.019 1.744-4.019 3.896s1.8 3.896 4.018 3.896c2.22 0 4.019-1.744 4.019-3.896z" fill="#53C1DE"/><path fill-rule="evenodd" clip-rule="evenodd" d="M37.05 16.73c.849-3.343 1.915-9.543-1.845-11.645-3.742-2.093-8.613 1.918-11.185 4.325-2.564-2.383-7.571-6.376-11.328-4.268-3.741 2.1-2.588 8.197-1.72 11.561-3.49.962-9.472 3.032-9.472 7.26 0 4.218 5.976 6.47 9.445 7.43-.87 3.383-1.967 9.393 1.78 11.489 3.77 2.108 8.762-1.79 11.358-4.224 2.588 2.422 7.411 6.345 11.155 4.244 3.755-2.108 2.777-8.224 1.91-11.608 3.362-.963 9.351-3.166 9.351-7.33 0-4.189-6.014-6.276-9.449-7.233zm-.426 12.77c-.57-1.748-1.338-3.607-2.279-5.527.898-1.875 1.637-3.71 2.19-5.447 2.518.708 8.042 2.326 8.042 5.438 0 3.14-5.3 4.774-7.953 5.536zm-2.35 11.789c-2.792 1.567-6.941-2.184-8.853-3.968 1.268-1.344 2.535-2.908 3.772-4.644 2.176-.187 4.231-.493 6.095-.91.61 2.393 1.792 7.947-1.013 9.522zm-20.59-.022c-2.792-1.562-1.516-6.925-.875-9.417 1.843.395 3.883.68 6.064.851a45.66 45.66 0 0 0 3.863 4.627c-1.624 1.523-6.245 5.508-9.051 3.939zM3.423 23.964c0-3.153 5.49-4.759 8.066-5.465a43.862 43.862 0 0 0 2.193 5.51 44.543 44.543 0 0 0-2.22 5.589c-2.456-.682-8.04-2.48-8.04-5.634zM13.655 6.755c2.805-1.574 7.157 2.26 9.018 3.985a44.965 44.965 0 0 0-3.833 4.6c-2.116.19-4.142.495-6.005.904-.699-2.713-1.982-7.916.82-9.489zm16.913 10.61c1.436.176 2.812.41 4.104.696a39.005 39.005 0 0 1-1.44 3.757 61.759 61.759 0 0 0-2.664-4.452zm-6.547-5.293a40.161 40.161 0 0 1 2.648 3.1 58.38 58.38 0 0 0-5.318-.002 41.43 41.43 0 0 1 2.67-3.098zm-9.237 9.745a40.337 40.337 0 0 1-1.43-3.776 44.595 44.595 0 0 1 4.08-.679 54.414 54.414 0 0 0-2.65 4.455zm2.691 8.882a42.121 42.121 0 0 1-4.147-.647 40.965 40.965 0 0 1 1.459-3.852 54.474 54.474 0 0 0 2.688 4.499zm6.6 5.288a42.234 42.234 0 0 1-2.708-3.141c1.782.068 3.567.068 5.349-.01a39.887 39.887 0 0 1-2.642 3.151zm9.175-9.854a38.827 38.827 0 0 1 1.51 3.838 41.958 41.958 0 0 1-4.197.694 61.673 61.673 0 0 0 2.687-4.532zm-5.13 4.758a62.237 62.237 0 0 1-8.195.016 52.394 52.394 0 0 1-4.119-6.898 52.342 52.342 0 0 1 4.096-6.885c2.729-.2 5.474-.2 8.203 0a58.706 58.706 0 0 1 4.108 6.858 58.696 58.696 0 0 1-4.093 6.91zM34.245 6.7c2.805 1.569 1.557 7.14.944 9.564a47.404 47.404 0 0 0-6.017-.922c-1.237-1.707-2.518-3.26-3.804-4.603 1.886-1.762 6.099-5.593 8.877-4.04z" fill="#53C1DE"/></svg>