<svg width="58" height="58" fill="none" xmlns="http://www.w3.org/2000/svg"><path d="M33.855 28.956c0-2.6-2.173-4.707-4.855-4.707-2.681 0-4.855 2.107-4.855 4.707 0 2.6 2.174 4.708 4.855 4.708 2.682 0 4.855-2.108 4.855-4.708z" fill="#53C1DE"/><path fill-rule="evenodd" clip-rule="evenodd" d="M44.77 20.216c1.025-4.04 2.314-11.531-2.23-14.071-4.522-2.53-10.407 2.317-13.515 5.225-3.098-2.88-9.148-7.704-13.688-5.156-4.52 2.537-3.127 9.904-2.079 13.97-4.217 1.16-11.445 3.662-11.445 8.772 0 5.096 7.22 7.817 11.413 8.978-1.052 4.087-2.376 11.35 2.15 13.881 4.557 2.548 10.588-2.162 13.724-5.103 3.128 2.926 8.956 7.667 13.48 5.128 4.537-2.547 3.355-9.938 2.307-14.027 4.064-1.162 11.3-3.824 11.3-8.857 0-5.061-7.267-7.582-11.418-8.74zm-.516 15.43c-.688-2.112-1.617-4.358-2.753-6.678 1.085-2.266 1.977-4.483 2.646-6.582 3.043.855 9.718 2.81 9.718 6.57 0 3.796-6.405 5.77-9.61 6.69zm-2.838 14.245c-3.375 1.894-8.388-2.64-10.698-4.794 1.532-1.625 3.063-3.514 4.558-5.612 2.629-.226 5.112-.596 7.364-1.1.738 2.892 2.165 9.603-1.224 11.506zm-24.88-.027c-3.375-1.887-1.832-8.367-1.058-11.379 2.227.478 4.693.822 7.328 1.029a55.149 55.149 0 0 0 4.667 5.591c-1.962 1.84-7.545 6.655-10.936 4.759zm-12.4-20.908c0-3.81 6.634-5.75 9.746-6.603a53.038 53.038 0 0 0 2.65 6.658c-1.09 2.303-1.996 4.582-2.683 6.753-2.967-.823-9.714-2.996-9.714-6.808zM16.5 8.163c3.39-1.902 8.648 2.73 10.898 4.815a54.332 54.332 0 0 0-4.632 5.557c-2.558.23-5.006.6-7.256 1.094-.845-3.279-2.395-9.566.99-11.466zm20.437 12.82c1.736.213 3.398.495 4.958.84a47.131 47.131 0 0 1-1.74 4.54 74.598 74.598 0 0 0-3.218-5.38zm-7.911-6.396a48.525 48.525 0 0 1 3.2 3.745 70.528 70.528 0 0 0-6.427 0 50.06 50.06 0 0 1 3.227-3.745zM17.865 26.362a48.755 48.755 0 0 1-1.728-4.562 53.894 53.894 0 0 1 4.93-.82 65.762 65.762 0 0 0-3.202 5.382zm3.251 10.732a50.899 50.899 0 0 1-5.01-.781 49.516 49.516 0 0 1 1.762-4.654 65.76 65.76 0 0 0 3.248 5.435zm7.974 6.39a51.023 51.023 0 0 1-3.271-3.796c2.153.082 4.31.083 6.463-.01a48.217 48.217 0 0 1-3.192 3.807zm11.087-11.906a46.96 46.96 0 0 1 1.826 4.637c-1.577.35-3.279.63-5.072.839a74.515 74.515 0 0 0 3.246-5.476zm-6.198 5.749a75.171 75.171 0 0 1-9.902.018 63.282 63.282 0 0 1-4.977-8.334 63.233 63.233 0 0 1 4.949-8.32 67.582 67.582 0 0 1 9.912.002 70.923 70.923 0 0 1 4.964 8.285 70.923 70.923 0 0 1-4.946 8.349zm7.4-29.231c3.39 1.895 1.882 8.628 1.141 11.556a57.273 57.273 0 0 0-7.27-1.114c-1.494-2.062-3.042-3.938-4.596-5.561 2.278-2.13 7.369-6.759 10.726-4.881z" fill="#53C1DE"/></svg>