<svg width="48" height="36" viewBox="0 0 48 36" fill="none" xmlns="http://www.w3.org/2000/svg">
<path d="M40.6137 20.5733C39.0027 20.5824 37.6077 20.9693 36.4377 21.5454C36.0057 20.6904 35.5737 19.9433 35.5018 19.3854C35.4208 18.7374 35.3218 18.3413 35.4208 17.5674C35.5197 16.7933 35.9697 15.6953 35.9697 15.6053C35.9607 15.5243 35.8707 15.1283 34.9437 15.1193C34.0168 15.1103 33.2157 15.2993 33.1257 15.5423C33.0357 15.7853 32.8557 16.3433 32.7387 16.9193C32.5767 17.7653 30.8847 20.7623 29.9217 22.3373C29.6067 21.7253 29.3367 21.1853 29.2827 20.7532C29.2017 20.1053 29.1027 19.7092 29.2017 18.9353C29.3007 18.1612 29.7507 17.0633 29.7507 16.9733C29.7417 16.8923 29.6517 16.4963 28.7248 16.4873C27.7977 16.4783 26.9968 16.6673 26.9068 16.9103C26.8168 17.1533 26.7178 17.7293 26.5198 18.2873C26.3307 18.8453 24.0807 23.8493 23.4957 25.1543C23.1987 25.8203 22.9378 26.3513 22.7487 26.7113C22.5597 27.0713 22.7397 26.7383 22.7217 26.7743C22.5597 27.0803 22.4697 27.2513 22.4697 27.2513V27.2604C22.3437 27.4854 22.2087 27.7013 22.1457 27.7013C22.1007 27.7013 22.0107 27.0983 22.1637 26.2704C22.4967 24.5333 23.3067 21.8244 23.2977 21.7254C23.2977 21.6804 23.4507 21.2033 22.7757 20.9604C22.1187 20.7174 21.8847 21.1224 21.8307 21.1224C21.7767 21.1224 21.7317 21.2664 21.7317 21.2664C21.7317 21.2664 22.4607 18.2155 20.3367 18.2155C19.0047 18.2155 17.1687 19.6645 16.2597 20.9875C15.6837 21.3025 14.4597 21.9684 13.1637 22.6795C12.6687 22.9495 12.1557 23.2375 11.6697 23.4985L11.5707 23.3903C8.99675 20.6453 4.23575 18.7013 4.43375 15.0113C4.50575 13.6703 4.97375 10.1333 13.5778 5.84931C20.6248 2.33931 26.2678 3.30231 27.2487 5.44431C28.6437 8.50431 24.2337 14.1923 16.9078 15.0113C14.1178 15.3263 12.6507 14.2463 12.2818 13.8413C11.8948 13.4183 11.8408 13.4003 11.6968 13.4813C11.4628 13.6073 11.6068 13.9853 11.6968 14.2103C11.9128 14.7773 12.8128 15.7853 14.3428 16.2893C15.6837 16.7303 18.9598 16.9733 22.9198 15.4433C27.3568 13.7243 30.8218 8.95431 29.8048 4.96731C28.7698 0.908312 22.0378 -0.423688 15.6748 1.83531C11.8857 3.18531 7.78175 5.29131 4.82975 8.05431C1.31975 11.3303 0.761751 14.1923 0.995751 15.3803C1.81484 19.6193 7.65575 22.3823 9.99575 24.4253C9.87875 24.4882 9.77075 24.5512 9.67175 24.6053C8.50175 25.1812 4.04675 27.5123 2.93075 29.9782C1.67075 32.7682 3.12875 34.7753 4.10075 35.0453C7.10675 35.8823 10.1847 34.3793 11.8497 31.9043C13.5057 29.4293 13.3077 26.2163 12.5427 24.7493L12.5157 24.6953L13.4337 24.1553C14.0277 23.8043 14.6127 23.4803 15.1257 23.2012C14.8377 23.9842 14.6307 24.9112 14.5227 26.2612C14.3967 27.8453 15.0447 29.8972 15.8997 30.7072C16.2777 31.0581 16.7277 31.0672 17.0067 31.0672C17.9967 31.0672 18.4467 30.2481 18.9417 29.2672C19.5537 28.0702 20.0937 26.6842 20.0937 26.6842C20.0937 26.6842 19.4187 30.4372 21.2637 30.4372C21.9387 30.4372 22.6137 29.5642 22.9197 29.1142V29.1232C22.9197 29.1232 22.9377 29.0962 22.9737 29.0332C23.0115 28.9774 23.0475 28.9204 23.0817 28.8623V28.8443C23.3517 28.3763 23.9547 27.3053 24.8547 25.5323C26.0157 23.2463 27.1317 20.3843 27.1317 20.3843C27.1317 20.3843 27.2397 21.0863 27.5727 22.2383C27.7707 22.9224 28.2027 23.6693 28.5357 24.3983C28.2657 24.7763 28.1037 24.9924 28.1037 24.9924L28.1127 25.0014C27.8967 25.2894 27.6537 25.5955 27.4017 25.9014C26.4837 26.9994 25.3857 28.2505 25.2417 28.6105C25.0707 29.0334 25.1067 29.3484 25.4397 29.6005C25.6827 29.7805 26.1147 29.8164 26.5737 29.7805C27.4017 29.7264 27.9777 29.5195 28.2657 29.3934C28.7157 29.2314 29.2287 28.9884 29.7237 28.6284C30.6237 27.9625 31.1727 27.0175 31.1187 25.7575C31.0917 25.0645 30.8667 24.3805 30.5877 23.7325C30.6687 23.6155 30.7498 23.4984 30.8307 23.3725C32.2527 21.2934 33.3507 19.0075 33.3507 19.0075C33.3507 19.0075 33.4587 19.7095 33.7917 20.8615C33.9627 21.4465 34.3047 22.0856 34.6107 22.7156C33.2787 23.8046 32.4417 25.0646 32.1537 25.8926C31.6227 27.4226 32.0367 28.1156 32.8197 28.2776C33.1707 28.3496 33.6747 28.1876 34.0527 28.0256C34.5207 27.8726 35.0877 27.6115 35.6097 27.2246C36.5097 26.5586 37.3737 25.6316 37.3287 24.3806C37.3017 23.8046 37.1487 23.2376 36.9417 22.6976C38.0757 22.2296 39.5427 21.9596 41.4057 22.1846C45.4107 22.6526 46.2027 25.1546 46.0498 26.1986C45.8968 27.2427 45.0598 27.8186 44.7807 27.9986C44.5017 28.1696 44.4117 28.2327 44.4387 28.3586C44.4747 28.5477 44.6007 28.5386 44.8437 28.5027C45.1767 28.4486 46.9497 27.6477 47.0217 25.7218C47.1297 23.2464 44.7807 20.5464 40.6137 20.5733ZM9.72575 30.9863C8.40275 32.4353 6.53975 32.9843 5.74775 32.5163C4.89275 32.0213 5.22566 29.8883 6.85475 28.3493C7.84475 27.4133 9.13175 26.5493 9.97775 26.0183C10.1667 25.9013 10.4547 25.7304 10.7967 25.5233C10.8507 25.4874 10.8867 25.4693 10.8867 25.4693C10.9497 25.4333 11.0217 25.3883 11.0937 25.3433C11.6967 27.5393 11.1207 29.4653 9.72575 30.9863ZM19.4007 24.4073C18.9417 25.5323 17.9697 28.4213 17.3847 28.2593C16.8807 28.1243 16.5747 25.9373 17.2857 23.7773C17.6457 22.6882 18.4107 21.3923 18.8607 20.8882C19.5897 20.0782 20.3817 19.8082 20.5797 20.1412C20.8137 20.5733 19.6887 23.7053 19.4007 24.4073ZM27.3837 28.2233C27.1857 28.3224 27.0057 28.3943 26.9247 28.3404C26.8617 28.3044 27.0057 28.1694 27.0057 28.1694C27.0057 28.1694 28.0047 27.0984 28.4007 26.6034C28.6257 26.3155 28.8957 25.9825 29.1837 25.6044V25.7124C29.1837 27.0083 27.9417 27.8723 27.3837 28.2233ZM33.5397 26.8193C33.3957 26.7113 33.4137 26.3783 33.8997 25.3343C34.0887 24.9203 34.5207 24.2273 35.2677 23.5703C35.3577 23.8403 35.4117 24.1012 35.4027 24.3443C35.3937 25.9643 34.2417 26.5673 33.5397 26.8193Z" fill="#CF649A"/>
</svg>
