<svg width="48" height="36" viewBox="0 0 48 36" fill="none" xmlns="http://www.w3.org/2000/svg">
<path d="M40.6136 20.5733C39.0026 20.5824 37.6076 20.9693 36.4376 21.5454C36.0056 20.6904 35.5736 19.9433 35.5017 19.3854C35.4207 18.7374 35.3217 18.3413 35.4207 17.5674C35.5196 16.7933 35.9696 15.6953 35.9696 15.6053C35.9605 15.5243 35.8705 15.1283 34.9436 15.1193C34.0167 15.1103 33.2156 15.2993 33.1256 15.5423C33.0356 15.7853 32.8556 16.3433 32.7386 16.9193C32.5766 17.7653 30.8846 20.7623 29.9216 22.3373C29.6066 21.7253 29.3366 21.1853 29.2825 20.7532C29.2016 20.1053 29.1025 19.7092 29.2016 18.9353C29.3006 18.1612 29.7506 17.0633 29.7506 16.9733C29.7416 16.8923 29.6516 16.4963 28.7247 16.4873C27.7976 16.4783 26.9967 16.6673 26.9067 16.9103C26.8167 17.1533 26.7177 17.7293 26.5197 18.2873C26.3306 18.8453 24.0806 23.8493 23.4956 25.1543C23.1986 25.8203 22.9377 26.3513 22.7486 26.7113C22.5596 27.0713 22.7396 26.7383 22.7216 26.7743C22.5596 27.0803 22.4696 27.2513 22.4696 27.2513V27.2604C22.3436 27.4854 22.2086 27.7013 22.1455 27.7013C22.1005 27.7013 22.0105 27.0983 22.1635 26.2704C22.4965 24.5333 23.3065 21.8244 23.2976 21.7254C23.2976 21.6804 23.4505 21.2033 22.7755 20.9604C22.1185 20.7174 21.8846 21.1224 21.8305 21.1224C21.7765 21.1224 21.7315 21.2664 21.7315 21.2664C21.7315 21.2664 22.4605 18.2155 20.3365 18.2155C19.0045 18.2155 17.1685 19.6645 16.2595 20.9875C15.6835 21.3025 14.4595 21.9684 13.1635 22.6795C12.6685 22.9495 12.1555 23.2375 11.6695 23.4985L11.5706 23.3903C8.99663 20.6453 4.23563 18.7013 4.43363 15.0113C4.50563 13.6703 4.97363 10.1333 13.5777 5.84931C20.6247 2.33931 26.2677 3.30231 27.2486 5.44431C28.6436 8.50431 24.2336 14.1923 16.9077 15.0113C14.1177 15.3263 12.6506 14.2463 12.2817 13.8413C11.8947 13.4183 11.8407 13.4003 11.6967 13.4813C11.4627 13.6073 11.6067 13.9853 11.6967 14.2103C11.9127 14.7773 12.8127 15.7853 14.3427 16.2893C15.6836 16.7303 18.9597 16.9733 22.9197 15.4433C27.3567 13.7243 30.8217 8.95431 29.8047 4.96731C28.7697 0.908312 22.0377 -0.423688 15.6747 1.83531C11.8856 3.18531 7.78163 5.29131 4.82963 8.05431C1.31963 11.3303 0.761629 14.1923 0.995629 15.3803C1.81472 19.6193 7.65563 22.3823 9.99563 24.4253C9.87863 24.4882 9.77063 24.5512 9.67163 24.6053C8.50163 25.1812 4.04663 27.5123 2.93063 29.9782C1.67063 32.7682 3.12863 34.7753 4.10063 35.0453C7.10663 35.8823 10.1846 34.3793 11.8496 31.9043C13.5055 29.4293 13.3076 26.2163 12.5426 24.7493L12.5155 24.6953L13.4335 24.1553C14.0276 23.8043 14.6126 23.4803 15.1255 23.2012C14.8376 23.9842 14.6305 24.9112 14.5226 26.2612C14.3966 27.8453 15.0446 29.8972 15.8996 30.7072C16.2776 31.0581 16.7276 31.0672 17.0066 31.0672C17.9966 31.0672 18.4466 30.2481 18.9416 29.2672C19.5536 28.0702 20.0936 26.6842 20.0936 26.6842C20.0936 26.6842 19.4186 30.4372 21.2636 30.4372C21.9386 30.4372 22.6136 29.5642 22.9196 29.1142V29.1232C22.9196 29.1232 22.9376 29.0962 22.9736 29.0332C23.0114 28.9774 23.0474 28.9204 23.0816 28.8623V28.8443C23.3516 28.3763 23.9546 27.3053 24.8546 25.5323C26.0155 23.2463 27.1316 20.3843 27.1316 20.3843C27.1316 20.3843 27.2396 21.0863 27.5726 22.2383C27.7705 22.9224 28.2025 23.6693 28.5355 24.3983C28.2655 24.7763 28.1035 24.9924 28.1035 24.9924L28.1125 25.0014C27.8966 25.2894 27.6535 25.5955 27.4016 25.9014C26.4836 26.9994 25.3856 28.2505 25.2416 28.6105C25.0706 29.0334 25.1066 29.3484 25.4396 29.6005C25.6826 29.7805 26.1146 29.8164 26.5736 29.7805C27.4016 29.7264 27.9776 29.5195 28.2656 29.3934C28.7156 29.2314 29.2286 28.9884 29.7236 28.6284C30.6236 27.9625 31.1726 27.0175 31.1186 25.7575C31.0916 25.0645 30.8666 24.3805 30.5876 23.7325C30.6686 23.6155 30.7497 23.4984 30.8306 23.3725C32.2526 21.2934 33.3506 19.0075 33.3506 19.0075C33.3506 19.0075 33.4586 19.7095 33.7916 20.8615C33.9625 21.4465 34.3046 22.0856 34.6106 22.7156C33.2786 23.8046 32.4416 25.0646 32.1536 25.8926C31.6226 27.4226 32.0366 28.1156 32.8196 28.2776C33.1705 28.3496 33.6746 28.1876 34.0525 28.0256C34.5205 27.8726 35.0875 27.6115 35.6096 27.2246C36.5096 26.5586 37.3736 25.6316 37.3286 24.3806C37.3016 23.8046 37.1486 23.2376 36.9416 22.6976C38.0756 22.2296 39.5425 21.9596 41.4056 22.1846C45.4106 22.6526 46.2026 25.1546 46.0497 26.1986C45.8967 27.2427 45.0597 27.8186 44.7806 27.9986C44.5016 28.1696 44.4116 28.2327 44.4386 28.3586C44.4746 28.5477 44.6006 28.5386 44.8436 28.5027C45.1766 28.4486 46.9496 27.6477 47.0216 25.7218C47.1296 23.2464 44.7806 20.5464 40.6136 20.5733ZM9.72563 30.9863C8.40263 32.4353 6.53963 32.9843 5.74763 32.5163C4.89263 32.0213 5.22554 29.8883 6.85463 28.3493C7.84463 27.4133 9.13163 26.5493 9.97763 26.0183C10.1666 25.9013 10.4546 25.7304 10.7966 25.5233C10.8506 25.4874 10.8866 25.4693 10.8866 25.4693C10.9496 25.4333 11.0216 25.3883 11.0936 25.3433C11.6966 27.5393 11.1206 29.4653 9.72563 30.9863ZM19.4006 24.4073C18.9416 25.5323 17.9696 28.4213 17.3846 28.2593C16.8805 28.1243 16.5746 25.9373 17.2855 23.7773C17.6455 22.6882 18.4105 21.3923 18.8605 20.8882C19.5896 20.0782 20.3815 19.8082 20.5796 20.1412C20.8136 20.5733 19.6886 23.7053 19.4006 24.4073ZM27.3836 28.2233C27.1856 28.3224 27.0056 28.3943 26.9246 28.3404C26.8616 28.3044 27.0055 28.1694 27.0055 28.1694C27.0055 28.1694 28.0045 27.0984 28.4005 26.6034C28.6255 26.3155 28.8955 25.9825 29.1835 25.6044V25.7124C29.1836 27.0083 27.9416 27.8723 27.3836 28.2233ZM33.5395 26.8193C33.3955 26.7113 33.4136 26.3783 33.8995 25.3343C34.0886 24.9203 34.5205 24.2273 35.2675 23.5703C35.3575 23.8403 35.4116 24.1012 35.4025 24.3443C35.3936 25.9643 34.2416 26.5673 33.5395 26.8193Z" fill="#CF649A"/>
</svg>
