<svg width="38" height="38" viewBox="0 0 38 38" fill="none" xmlns="http://www.w3.org/2000/svg">
<circle cx="19" cy="19" r="19" fill="#4AA200"/>
<ellipse cx="15.3966" cy="15.0688" rx="5.56897" ry="5.24138" fill="#184AA9"/>
<circle cx="22.9308" cy="22.9308" r="5.24138" fill="#2173F0"/>
<circle cx="18.9999" cy="18.9997" r="8.51724" fill="url(#paint0_linear_131:639)"/>
<path d="M19.045 14.4133C20.4297 14.4133 22.2758 15.0685 21.8143 15.9421C21.1835 17.136 19.9681 15.9421 19.045 15.9421C18.1219 15.9421 17.6604 16.3788 17.6604 16.8156C17.6604 17.2524 17.8912 17.6892 19.045 18.126C20.1989 18.5628 22.2758 19.2179 22.2758 20.9651C22.2758 22.7122 20.6604 23.5857 18.5835 23.5857C16.7229 23.5857 15.3527 22.7122 15.8142 21.8386C16.345 20.834 17.6604 22.057 18.5835 22.057C19.5066 22.057 20.4297 21.8386 20.4297 20.9651C20.4297 20.0915 19.045 19.8731 18.1219 19.4363C16.9681 18.8903 15.8142 18.3444 15.8142 16.8156C15.8142 15.2869 17.6604 14.4133 19.045 14.4133Z" fill="white"/>
<defs>
<linearGradient id="paint0_linear_131:639" x1="12.3754" y1="13.7947" x2="25.1512" y2="24.4412" gradientUnits="userSpaceOnUse">
<stop stop-color="#297AC0"/>
<stop offset="1" stop-color="#48B0F9"/>
</linearGradient>
</defs>
</svg>
