<svg width="38" height="38" viewBox="0 0 38 38" fill="none" xmlns="http://www.w3.org/2000/svg">
<circle cx="19" cy="19" r="19" fill="#4AA200"/>
<ellipse cx="15.3966" cy="15.069" rx="5.56897" ry="5.24138" fill="#184AA9"/>
<circle cx="22.9308" cy="22.9313" r="5.24138" fill="#2173F0"/>
<circle cx="19.0002" cy="18.9997" r="8.51724" fill="url(#paint0_linear)"/>
<path d="M19.045 14.4136C20.4297 14.4136 22.2758 15.0687 21.8143 15.9423C21.1835 17.1363 19.9681 15.9423 19.045 15.9423C18.1219 15.9423 17.6604 16.3791 17.6604 16.8159C17.6604 17.2527 17.8912 17.6894 19.045 18.1262C20.1989 18.563 22.2758 19.2182 22.2758 20.9653C22.2758 22.7124 20.6604 23.586 18.5835 23.586C16.7229 23.586 15.3527 22.7124 15.8142 21.8389C16.345 20.8343 17.6604 22.0573 18.5835 22.0573C19.5066 22.0573 20.4297 21.8389 20.4297 20.9653C20.4297 20.0917 19.045 19.8733 18.1219 19.4366C16.9681 18.8906 15.8142 18.3446 15.8142 16.8159C15.8142 15.2871 17.6604 14.4136 19.045 14.4136Z" fill="white"/>
<defs>
<linearGradient id="paint0_linear" x1="12.3756" y1="13.7947" x2="25.1515" y2="24.4412" gradientUnits="userSpaceOnUse">
<stop stop-color="#297AC0"/>
<stop offset="1" stop-color="#48B0F9"/>
</linearGradient>
</defs>
</svg>
