<svg width="69" height="70" viewBox="0 0 69 70" fill="none" xmlns="http://www.w3.org/2000/svg">
<g clip-path="url(#clip0_131:309)">
<path d="M29.8374 38.7157C29.7202 38.2781 29.2704 38.0184 28.8328 38.1357L11.0482 42.901C10.0841 43.1593 9.08977 42.5852 8.83146 41.6212L2.4776 17.9083C2.21928 16.9442 2.79338 15.9499 3.75742 15.6916L27.4703 9.33771C28.4344 9.07939 29.4287 9.65348 29.6871 10.6175L34.4524 28.4021C34.5697 28.8397 35.0195 29.0994 35.4571 28.9822C35.8947 28.8649 36.1544 28.4151 36.0372 27.9775L31.2718 10.1929C30.7793 8.35504 28.8836 7.26053 27.0457 7.75298L3.33279 14.1068C1.49494 14.5993 0.400424 16.495 0.892876 18.3329L7.24674 42.0458C7.73919 43.8837 9.63494 44.9782 11.4728 44.4858L29.2574 39.7204C29.695 39.6031 29.9547 39.1533 29.8374 38.7157Z" fill="white"/>
<path d="M57.1125 25.112L50.3374 26.9274C49.8998 27.0447 49.6401 27.4945 49.7573 27.9321C49.8746 28.3697 50.3244 28.6294 50.762 28.5121L57.5371 26.6968C58.5011 26.4384 59.4955 27.0125 59.7538 27.9766L66.1077 51.6895C66.366 52.6535 65.7919 53.6479 64.8279 53.9062L41.1149 60.2601C40.1509 60.5184 39.1565 59.9443 38.8982 58.9803L32.5444 35.2673C32.286 34.3033 32.8601 33.3089 33.8242 33.0506L47.3745 29.4198C47.8121 29.3026 48.0718 28.8527 47.9545 28.4151C47.8373 27.9776 47.3875 27.7178 46.9499 27.8351L33.3995 31.4659C31.5617 31.9584 30.4672 33.8541 30.9596 35.692L37.3135 59.4049C37.8059 61.2427 39.7017 62.3373 41.5396 61.8448L65.2525 55.4909C67.0903 54.9985 68.1848 53.1027 67.6924 51.2649L61.3385 27.552C60.8461 25.7141 58.9503 24.6196 57.1125 25.112Z" fill="white"/>
<path d="M33.2074 52.5636L29.1394 50.9307C28.7191 50.762 28.2414 50.9661 28.0727 51.3864C27.9039 51.8068 28.108 52.2845 28.5283 52.4532L30.3126 53.1694L27.6085 53.894C24.7767 54.6528 21.8557 52.9662 21.0969 50.1345L19.7356 45.0539C19.6184 44.6163 19.1686 44.3566 18.731 44.4739C18.2934 44.5911 18.0337 45.0409 18.151 45.4785L19.5123 50.5591C20.5052 54.2647 24.3277 56.4715 28.0331 55.4786L30.7372 54.754L29.5501 56.2664C29.2704 56.6227 29.3325 57.1385 29.6888 57.4181C29.9002 57.584 30.1674 57.6296 30.4082 57.565C30.5737 57.5207 30.7266 57.4244 30.8405 57.2794L33.5471 53.8313C33.7065 53.6281 33.761 53.3619 33.6942 53.1125C33.6274 52.8631 33.4471 52.6597 33.2074 52.5636Z" fill="white"/>
<path d="M35.377 17.0338L39.445 18.6667C39.6161 18.7354 39.7968 18.7423 39.9622 18.6979C40.2031 18.6334 40.4117 18.4602 40.5118 18.211C40.6805 17.7907 40.4764 17.313 40.0561 17.1442L38.2718 16.428L40.9759 15.7035C43.8077 14.9447 46.7287 16.6312 47.4875 19.4629L48.8488 24.5436C48.9661 24.9811 49.4159 25.2408 49.8534 25.1236C50.291 25.0063 50.5507 24.5565 50.4334 24.119L49.0721 19.0383C48.0792 15.3328 44.2567 13.126 40.5513 14.1188L37.8472 14.8434L39.0343 13.331C39.314 12.9747 39.2519 12.459 38.8956 12.1793C38.5391 11.8996 38.0236 11.9617 37.7439 12.3181L35.0373 15.7661C34.8779 15.9693 34.8234 16.2355 34.8902 16.4849C34.9571 16.7343 35.1373 16.9377 35.377 17.0338Z" fill="white"/>
<path d="M10.6625 33.3399L7.72235 22.367L12.4206 21.1081C12.9049 20.9784 13.3755 20.9627 13.8325 21.0611C14.2868 21.1492 14.7089 21.3232 15.0988 21.5831C15.4859 21.8328 15.8185 22.1467 16.0966 22.525C16.3719 22.8929 16.5675 23.2933 16.6834 23.726C16.8187 24.2309 16.8492 24.7362 16.7749 25.242C16.7109 25.745 16.5466 26.2032 16.2818 26.6164C16.0274 27.0269 15.6849 27.3561 15.2544 27.604L19.039 31.0954L17.4626 31.5178L13.903 28.2477L10.9975 29.0262L12.0535 32.9672L10.6625 33.3399ZM10.6662 27.7899L13.989 26.8995C14.3702 26.7974 14.6723 26.606 14.8953 26.3254C15.1258 26.0317 15.2714 25.689 15.3321 25.2973C15.403 24.9028 15.3847 24.5047 15.277 24.1029C15.1666 23.6907 14.9731 23.3395 14.6965 23.0492C14.4172 22.7486 14.1006 22.5353 13.7466 22.4093C13.3925 22.2833 13.0352 22.2686 12.6746 22.3652L9.44457 23.2307L10.6662 27.7899Z" fill="white"/>
<path d="M25.3688 29.4822C24.493 29.7169 23.7163 29.7649 23.0387 29.6262C22.3583 29.4772 21.7687 29.1935 21.2701 28.7749C20.7687 28.3461 20.3472 27.8241 20.0057 27.2088C19.6641 26.5936 19.3995 25.9357 19.2118 25.235L17.7251 19.6868L19.116 19.3141L20.6027 24.8623C20.7463 25.3981 20.9386 25.9098 21.1796 26.3973C21.4283 26.8718 21.73 27.2768 22.085 27.6124C22.4399 27.948 22.8604 28.1777 23.3463 28.3014C23.8322 28.4252 24.3894 28.4029 25.0179 28.2345C25.6567 28.0633 26.1556 27.8027 26.5145 27.4525C26.8707 27.092 27.1186 26.6778 27.2582 26.2097C27.395 25.7313 27.4473 25.2259 27.4151 24.6934C27.3932 24.1582 27.3118 23.6278 27.171 23.1024L25.6843 17.5541L27.0753 17.1814L28.5619 22.7297C28.7607 23.4715 28.8622 24.2007 28.8665 24.9174C28.8784 25.621 28.7665 26.2749 28.5308 26.8791C28.2952 27.4834 27.9186 28.0149 27.4011 28.4739C26.8911 28.9197 26.2137 29.2558 25.3688 29.4822Z" fill="white"/>
<path d="M48.4133 48.4402L48.7446 49.6766L41.2954 51.6726L38.3552 40.6997L45.6653 38.7409L45.9966 39.9773L40.0774 41.5634L41.0298 45.118L46.1763 43.739L46.4869 44.8981L41.3404 46.2771L42.355 50.0635L48.4133 48.4402Z" fill="white"/>
<path d="M49.7909 40.3852L52.0437 48.7926L50.6528 49.1653L47.7126 38.1924L48.8871 37.8776L57.8928 44.6578L55.5987 36.0959L56.9896 35.7232L59.9256 46.6806L58.6584 47.0202L49.7909 40.3852Z" fill="white"/>
</g>
<defs>
<clipPath id="clip0_131:309">
<rect width="56" height="56" fill="white" transform="translate(0 15) rotate(-15)"/>
</clipPath>
</defs>
</svg>
