<svg width="80" height="80" viewBox="0 0 80 80" fill="none" xmlns="http://www.w3.org/2000/svg">
<g clip-path="url(#clip0_131:324)">
<path d="M54.1152 14.4996L69.0624 39.8726L54.5624 64.9873L25.1152 64.7291L10.168 39.3562L24.668 14.2414L54.1152 14.4996Z" fill="white"/>
<path d="M51.0981 61.8319L27.8819 61.6272L32.3334 53.917L46.7005 54.2141L51.0981 61.8319ZM52.9212 61.4389L64.874 40.736L56.3358 40.7346L48.6533 54.0412L52.9212 61.4389ZM14.5603 40.7368L26.3457 60.7403L30.7972 53.03L23.3563 40.7364L14.5603 40.7368V40.7368ZM13.9891 38.9615L25.942 18.2586L30.2123 25.6521L22.5297 38.9588L13.9891 38.9615V38.9615ZM27.4645 17.3517L51.2761 17.5597L46.972 25.0146L31.822 24.7007L31.7051 24.7002L27.4645 17.3517V17.3517ZM64.8981 38.964L52.8122 18.4466L48.5082 25.9015L56.355 38.8648L56.4139 38.9658L64.8981 38.964V38.964Z" fill="#8ED6FB"/>
<path d="M31.8101 51.2754L24.4674 39.1501L31.234 27.4299L38.4052 39.8524L31.8101 51.2754ZM33.3463 52.1623L47.5185 52.4586L54.2851 40.7384L39.9414 40.7393L33.3463 52.1623ZM32.7454 26.4942L46.9739 26.7895L54.344 38.9641L39.9439 38.966L32.7454 26.4942" fill="#1C78C0"/>
</g>
<defs>
<clipPath id="clip0_131:324">
<rect width="58" height="58" fill="white" transform="translate(29) rotate(30)"/>
</clipPath>
</defs>
</svg>
