<svg width="470" height="470" viewBox="0 0 470 470" fill="none" xmlns="http://www.w3.org/2000/svg">
<path d="M235 235.004V3.00342C272.56 3.00342 309.558 12.1227 342.816 29.5777L235 235.004Z" fill="#4AA200"/>
<path d="M235 235.001L342.816 29.5744C376.073 47.0294 404.596 72.2981 425.932 103.209L235 235.001Z" fill="#4AA200"/>
<path d="M235 234.999L425.932 103.208C447.269 134.119 460.781 169.748 465.308 207.035L235 234.999Z" fill="#4AA200"/>
<path d="M235 234.999L465.308 207.035C469.836 244.321 465.243 282.148 451.924 317.268L235 234.999Z" fill="#4AA200"/>
<path d="M235 234.999L451.924 317.268C438.605 352.387 416.958 383.747 388.844 408.654L235 234.999Z" fill="#4AA200"/>
<path d="M235 234.999L388.844 408.654C360.73 433.561 326.99 451.27 290.521 460.258L235 234.999Z" fill="#4AA200"/>
<path d="M235 234.999L290.521 460.258C254.053 469.247 215.948 469.247 179.479 460.258L235 234.999Z" fill="#4AA200"/>
<path d="M234.999 234.999L179.478 460.258C143.009 451.27 109.269 433.561 81.1547 408.654L234.999 234.999Z" fill="#4AA200"/>
<path d="M234.999 234.999L81.1547 408.654C53.0407 383.747 31.3948 352.387 18.0759 317.268L234.999 234.999Z" fill="#4AA200"/>
<path d="M234.999 234.999L18.0759 317.268C4.757 282.149 0.16432 244.321 4.69166 207.034L234.999 234.999Z" fill="#4AA200"/>
<path d="M234.999 234.999L4.69166 207.034C9.219 169.748 22.7312 134.119 44.0676 103.208L234.999 234.999Z" fill="#4AA200"/>
<path d="M235 235.001L44.0679 103.209C65.4043 72.2981 93.9267 47.0294 127.184 29.5744L235 235.001Z" fill="#4AA200"/>
<path d="M235 235.001L127.184 29.5744C160.442 12.1194 197.44 3 235 3L235 235.001Z" fill="#4AA200"/>
<path d="M235 235.001L342.816 29.5744C376.073 47.0294 404.596 72.2981 425.932 103.209L235 235.001ZM235 235.001L44.0679 103.209C65.4043 72.2981 93.9267 47.0294 127.184 29.5744M235 235.001L127.184 29.5744M235 235.001L235 3C197.44 3 160.442 12.1194 127.184 29.5744M235 234.999L425.932 103.208C447.269 134.119 460.781 169.748 465.308 207.035M235 234.999L465.308 207.035M235 234.999L451.924 317.268M235 234.999L388.844 408.654M235 234.999L290.521 460.258M235 234.999L179.479 460.258C215.948 469.247 254.053 469.247 290.521 460.258M465.308 207.035C469.836 244.321 465.243 282.148 451.924 317.268M451.924 317.268C438.605 352.387 416.958 383.747 388.844 408.654M388.844 408.654C360.73 433.561 326.99 451.27 290.521 460.258M234.999 234.999L179.478 460.258C143.009 451.27 109.269 433.561 81.1547 408.654M234.999 234.999L81.1547 408.654M234.999 234.999L18.0759 317.268M234.999 234.999L4.69166 207.034M234.999 234.999L44.0676 103.208C22.7312 134.119 9.219 169.748 4.69166 207.034M81.1547 408.654C53.0407 383.747 31.3948 352.387 18.0759 317.268M18.0759 317.268C4.757 282.149 0.164319 244.321 4.69166 207.034M235 235.004V3.00342C272.56 3.00342 309.558 12.1227 342.816 29.5777L235 235.004Z" stroke="#252934" stroke-width="5.5"/>
<circle cx="234.5" cy="234.5" r="150.5" fill="#252934"/>
</svg>
