<svg width="58" height="58" viewBox="0 0 58 58" fill="none" xmlns="http://www.w3.org/2000/svg">
<g clip-path="url(#clip0)">
<path d="M4.86084 15.0635L28.9996 1.12695L53.1385 15.0635V42.9365L28.9996 56.8732L4.86084 42.9365V15.0635Z" stroke="white" stroke-width="2.00582"/>
<path d="M26.4836 38.2022H21.7154L20.3351 34.7138H13.4587L12.1537 38.2022H7.48584L14.9394 20.4341H19.1054L26.4836 38.2022ZM19.1556 31.2756L16.9471 25.1773L14.6884 31.2756H19.1556ZM41.4288 25.905C41.4288 27.21 41.0858 28.2975 40.3999 29.1675C39.7307 30.0375 38.8858 30.6482 37.8652 30.9996C36.8613 31.3342 35.6985 31.5015 34.3768 31.5015H32.2436V38.2022H27.9522V20.4341H34.4772C36.5853 20.4341 38.2667 20.8691 39.5215 21.7391C40.7931 22.5924 41.4288 23.981 41.4288 25.905ZM37.1374 25.9301C37.1374 24.5749 36.1335 23.8974 34.1259 23.8974H32.2436V28.0884H34.0506C36.1084 28.0884 37.1374 27.369 37.1374 25.9301ZM48.3213 38.2022H44.0048V20.4341H48.3213V38.2022Z" fill="white"/>
</g>
<defs>
<clipPath id="clip0">
<rect width="58" height="58" fill="white"/>
</clipPath>
</defs>
</svg>
