<svg width="84" height="83" viewBox="0 0 84 83" fill="none" xmlns="http://www.w3.org/2000/svg">
<g clip-path="url(#clip0)">
<path d="M13.8037 43.5755L43.2812 8.97144L74.0404 39.7306L39.4364 69.2081L22.7752 60.2367L13.8037 43.5755Z" fill="#1172B8"/>
<path d="M68.9145 39.7306L56.0981 26.9143L24.6982 58.3143L38.1553 65.3632L68.9145 39.7306Z" fill="#33AADD"/>
<path d="M44.5633 47.4205L31.747 34.6042L35.5918 29.4776L49.049 36.5266L38.7959 26.2736L42 21.7878L61.8653 41.6531L56.7388 45.498L45.2041 40.3715L52.8939 48.0613L39.4367 58.9551L29.1837 53.8286L24.0572 43.5756L29.8245 36.5266L33.6694 40.3715L31.1061 44.2164L33.6694 49.3429L38.7959 51.9062L44.5633 47.4205Z" fill="white"/>
</g>
<defs>
<clipPath id="clip0">
<rect width="58" height="58" fill="white" transform="translate(42) rotate(45)"/>
</clipPath>
</defs>
</svg>
