<svg width="64" height="64" viewBox="0 0 64 64" fill="none" xmlns="http://www.w3.org/2000/svg">
<circle cx="32" cy="32" r="32" fill="#72CA1A"/>
<path d="M32.0002 37.1C37.9649 37.1 42.8002 32.2647 42.8002 26.3C42.8002 20.3353 37.9649 15.5 32.0002 15.5C26.0355 15.5 21.2002 20.3353 21.2002 26.3C21.2002 32.2647 26.0355 37.1 32.0002 37.1Z" fill="white"/>
<path d="M31.9999 14.6001C25.4999 14.6001 20.2998 19.9001 20.2998 26.3001C20.2998 32.7002 25.4998 38.0002 31.9999 38.0002C38.4999 38.0002 43.6999 32.7002 43.6999 26.3001C43.6999 19.8 38.4999 14.6001 31.9999 14.6001ZM31.9999 36.1C26.5998 36.1 22.1999 31.7 22.1999 26.3C22.1999 20.9 26.6 16.5 31.9999 16.5C37.3997 16.5 41.7998 20.9 41.7998 26.3C41.7998 31.7 37.3999 36.1 31.9999 36.1Z" fill="#193651"/>
<path d="M43.8999 37.1001C40.9999 40.4001 36.6998 42.5001 31.9999 42.5001C27.3 42.5001 22.9999 40.4001 20.0999 37.1001C16.7999 38.5001 14.5 41.7001 14.5 45.5001V63.1001H49.4998V45.4001C49.4998 41.7001 47.1999 38.4001 43.8999 37.1001Z" fill="white"/>
<path d="M49.5001 64.0001H14.5001C14.0001 64.0001 13.6001 63.6001 13.6001 63.1V45.4001C13.6001 41.3001 16.0001 37.7001 19.8001 36.2C20.2001 36 20.6001 36.1 20.9001 36.4001C23.8001 39.6001 27.9001 41.4001 32.1001 41.4001C36.4001 41.4001 40.4001 39.6001 43.3001 36.4001C43.6001 36.1001 44.0001 36.0001 44.4 36.2C48.1 37.8 50.6 41.4 50.6 45.4001V63C50.4001 63.6001 50.0001 64.0001 49.5001 64.0001ZM15.4001 62.1H48.5002V45.4001C48.5002 42.3001 46.8002 39.5 44.1002 38.1001C40.9002 41.4001 36.5002 43.3001 32.0002 43.3001C27.4002 43.3001 23.1002 41.4001 19.9001 38.1001C17.2002 39.5002 15.5002 42.3001 15.5002 45.4001V62.1H15.4001Z" fill="#193651"/>
<path d="M18.2002 59.3V45.4C18.2002 44 18.7002 42.7001 19.6002 41.8C23.1003 44.6 27.4002 46.2 31.9002 46.2C36.4002 46.2 40.7003 44.6 44.2002 41.8C45.1002 42.8001 45.6003 44.1 45.6003 45.4V59.3H18.2002Z" fill="#72CA1A"/>
<path d="M23.6001 52.6502C23.6001 53.1748 24.0254 53.6001 24.5501 53.6001C25.0747 53.6001 25.5 53.1748 25.5 52.6502C25.5 52.1255 25.0747 51.7002 24.5501 51.7002C24.0254 51.7002 23.6001 52.1255 23.6001 52.6502Z" fill="#193651"/>
<path d="M31.1001 52.6502C31.1001 53.1748 31.5254 53.6001 32.0501 53.6001C32.5747 53.6001 33.0001 53.1748 33.0001 52.6502C33.0001 52.1255 32.5747 51.7002 32.0501 51.7002C31.5254 51.7002 31.1001 52.1255 31.1001 52.6502Z" fill="#193651"/>
<path d="M38.6001 52.6502C38.6001 53.1748 39.0254 53.6001 39.5501 53.6001C40.0747 53.6001 40.5 53.1748 40.5 52.6502C40.5 52.1255 40.0747 51.7002 39.5501 51.7002C39.0254 51.7002 38.6001 52.1255 38.6001 52.6502Z" fill="#193651"/>
<path d="M42.8 13.8999H21.1001V25.5999H42.8V13.8999Z" fill="#252934"/>
<path d="M42.8997 26.5001H21.0997C20.5997 26.5001 20.1997 26.1001 20.1997 25.6001V13.9C20.1997 13.4 20.5997 13 21.0997 13H42.7997C43.2997 13 43.6997 13.4 43.6997 13.9V25.6001C43.7997 26.1001 43.3997 26.5001 42.8997 26.5001ZM22.0997 24.6H41.9997V14.8H22.0997V24.6Z" fill="#252934"/>
<path d="M32.5002 4.1001L15.3003 12.2L31.5003 20.8002L48.7003 12.7001L32.5002 4.1001Z" fill="#252934"/>
<path d="M31.4998 21.6998C31.2997 21.6998 31.1998 21.6998 31.0998 21.5998L14.7998 12.9998C14.4999 12.7998 14.2998 12.4998 14.2998 12.1998C14.2998 11.7998 14.4999 11.4999 14.7998 11.3998L31.9997 3.29988C32.2996 3.19985 32.5997 3.19985 32.7997 3.29988L49.0996 11.8999C49.3995 12.0999 49.5996 12.3999 49.5996 12.6998C49.5996 13.0998 49.3995 13.3998 49.0996 13.4998L31.8996 21.5998C31.7997 21.6998 31.6997 21.6998 31.4998 21.6998ZM17.2997 12.1998L31.4998 19.6998L46.5997 12.5998L32.3997 5.09992L17.2997 12.1998Z" fill="#193651"/>
<path d="M17.0997 23.7997C16.5997 23.7997 16.1997 23.3997 16.1997 22.8997V13.2997C16.1997 12.7997 16.5997 12.3997 17.0997 12.3997C17.5998 12.3997 17.9997 12.7997 17.9997 13.2997V22.8997C18.0997 23.3997 17.6997 23.7997 17.0997 23.7997Z" fill="#193651"/>
</svg>
